<svg data-name="&lt;Group&gt;" xmlns="http://www.w3.org/2000/svg" width="295.031" height="229.17" viewBox="0 0 295.031 229.17">
    <g data-name="&lt;Group&gt;">
        <g data-name="&lt;Group&gt;">
            <g data-name="&lt;Group&gt;">
                <path data-name="&lt;Path&gt;" d="M1500.444 1408.65s28.938-14.269 33.915-21.711-2.339-7.863-2.339-7.863 12.914-12.559 11.1-17.847-8.506-.438-8.506-.438 8.3-18.484 4.388-20.342c-7.292-3.461-17.523 16.427-17.523 16.427s2.2-8.64-2.823-8.359c-7.573.423-7.26 19.967-7.26 19.967s-.855-7.493-5.42-5.059c-8.193 4.366-5.532 45.225-5.532 45.225z" transform="translate(-1321.382 -1181.063)" style="fill:#355389"/>
            </g>
            <path data-name="&lt;Path&gt;" d="M1502 1360.4c3.564-1.978 7.115 3.8 7.115 3.8s-.359-15.264 7.214-15.688c5.022-.281 2.823 8.359 2.823 8.359s10.23-19.888 17.523-16.427l-38.588 67.884c-.274-4.737-3.148-44.009 3.913-47.928z" transform="translate(-1319.057 -1181.062)" style="fill:#466eb6"/>
        </g>
        <g data-name="&lt;Group&gt;">
            <g data-name="&lt;Group&gt;">
                <path data-name="&lt;Path&gt;" d="M1507.5 1617.049s23.668 2.94 29.8.32 1.736-5.855 1.736-5.855 13.158-2.586 14.173-6.623-5.055-3.714-5.055-3.714 12.617-8.171 10.93-10.92c-3.142-5.122-17.6 3.126-17.6 3.126s4.882-4.5 1.636-6.361c-4.9-2.813-12.642 9.5-12.642 9.5s.481-3.036-3.355-3.372c-6.894-.601-19.623 23.899-19.623 23.899z" transform="translate(-1327.687 -1389.284)" style="fill:#355389"/>
            </g>
            <path data-name="&lt;Path&gt;" d="M1526.567 1578.859c3.836.336 3.51 5.578 3.51 5.578s7.886-14.6 12.782-11.787c3.246 1.865-.595 7.992-.595 7.992s13.281-7.6 16.423-2.474l-51.653 26.662c1.757-3.067 13.103-26.535 19.533-25.971z" transform="translate(-1327.297 -1377.197)" style="fill:#466eb6"/>
        </g>
    </g>
    <g data-name="&lt;Group&gt;">
        <g data-name="&lt;Group&gt;">
            <g data-name="&lt;Group&gt;">
                <path data-name="&lt;Path&gt;" d="M876.89 1403.852s-28.938-14.269-33.915-21.71 2.339-7.864 2.339-7.864-12.914-12.56-11.1-17.847 8.6-.235 8.6-.235-8.394-18.687-4.478-20.545c7.293-3.461 17.523 16.427 17.523 16.427s-2.2-8.64 2.823-8.359c7.573.423 7.26 19.967 7.26 19.967s.855-7.493 5.42-5.059c8.19 4.366 5.528 45.225 5.528 45.225z" transform="translate(-758.946 -1177.011)" style="fill:#355389"/>
            </g>
            <path data-name="&lt;Path&gt;" d="M896.329 1355.6c-3.564-1.978-7.115 3.8-7.115 3.8s.36-15.265-7.214-15.688c-5.022-.281-2.823 8.359-2.823 8.359s-10.23-19.888-17.523-16.427l38.588 67.884c.274-4.734 3.148-44.006-3.913-47.928z" transform="translate(-782.266 -1177.011)" style="fill:#466eb6"/>
        </g>
        <g data-name="&lt;Group&gt;">
            <g data-name="&lt;Group&gt;">
                <path data-name="&lt;Path&gt;" d="M823.819 1612.251s-23.668 2.939-29.8.32-1.736-5.856-1.736-5.856-13.158-2.586-14.174-6.622 5.266-3.64 5.266-3.64-12.829-8.245-11.142-11c3.142-5.122 17.6 3.126 17.6 3.126s-4.882-4.5-1.636-6.361c4.9-2.813 12.642 9.5 12.642 9.5s-.481-3.036 3.355-3.372c6.893-.595 19.625 23.905 19.625 23.905z" transform="translate(-706.623 -1385.233)" style="fill:#355389"/>
            </g>
            <path data-name="&lt;Path&gt;" d="M804.63 1571.644a4.01 4.01 0 0 0-3.776 4.063s-7.061-11.179-11.957-8.366c-3.246 1.865.594 7.992.594 7.992s-13.281-7.6-16.423-2.474l51.653 26.662c-1.756-3.067-13.662-28.441-20.091-27.877z" transform="translate(-707.453 -1372.635)" style="fill:#466eb6"/>
        </g>
    </g>
    <g data-name="&lt;Group&gt;">
        <path data-name="&lt;Path&gt;" d="M1985.345 1305.04c.712-1.714 1.436-3.43 3.284-4.3a4.133 4.133 0 0 1 4.385.561c3.764 2.83.484 5.949 4.769 11.316 1.331 1.668 2.943 3.014 3.74 4.969 1.117 2.735-.213 4.049-2.345 5.359-10.2 6.268-15.544-6.6-15.352-9.546a47.382 47.382 0 0 1 1.519-8.359z" transform="translate(-1729.949 -1147.539)" style="fill:#13375b"/>
        <path data-name="&lt;Path&gt;" d="M1938.1 1697.592a28.875 28.875 0 0 0 1.4 4.5c.051.112.52.513.576.628a7.653 7.653 0 0 1-3.5 5.76c.314-1.42 1.064-3.063.95-3.373a39.958 39.958 0 0 0-2.381-5.559c1.382-.208 1.848-1.069 2.955-1.956z" transform="translate(-1688.839 -1483.017)" style="fill:#f7a491"/>
        <path data-name="&lt;Path&gt;" d="m1907.8 1483.7 8.682 6.594s-4.3 4.136-5.911 5.673-11.561 8.695-11.7 9.047c-.1.261 2.264 8.49 3.791 12.883a10.615 10.615 0 0 1-4.135 2.161c-3.01-5.744-6.708-15.546-6.708-16.877-.008-2.165 15.981-19.481 15.981-19.481z" transform="translate(-1652.245 -1302.385)" style="fill:#355389"/>
        <path data-name="&lt;Path&gt;" d="M2120.05 1549.868a39.55 39.55 0 0 0-2.886 5.913 15.818 15.818 0 0 0-2.858-1.893 29.421 29.421 0 0 0 2.878-5.328c.352-1.82.765-2.088.765-2.088s6.1 2.064 6.506 2.642-3.265-.358-4.405.754z" transform="translate(-1840.145 -1355.395)" style="fill:#f7a491"/>
        <path data-name="&lt;Path&gt;" d="M2131.29 1544.185c-.473 0 .041-2.138.149-2.63a.921.921 0 0 1 .523-.74c.216-.053 7 2.24 8.14 3.063a1.361 1.361 0 0 1 .238.272c.627 1.17-4.961 1.393-5.765.881a4.607 4.607 0 0 0-3.285-.846z" transform="translate(-1854.321 -1350.616)" style="fill:#3c8f7c"/>
        <path data-name="&lt;Path&gt;" d="m1982.686 1479.594 7.578-3.062c-.03.013.046.308.052.331.711 2.767 4.5 1.7 6.068 6.506 1.106 3.4 2.725 16.1 2.725 16.1a36.559 36.559 0 0 1 4.713-6.2c.276-.311 3.789 2.1 3.789 2.1-2.612 6.925-9.027 12.553-9.9 12.154-5.868-2.692-12.916-23.934-12.907-23.932-.663-1.302-2.118-3.997-2.118-3.997z" transform="translate(-1728.989 -1296.329)" style="fill:#466eb6"/>
        <path data-name="&lt;Path&gt;" d="M1936.5 1229.683s-3.554-5.627-4.172-7.5 0-10.787.054-11.421 2.207-2.366 1.868-2.864-3.3-.9-3.8-.807-1.465.008-1.861.409c-.052.052.944 2.4.923 2.763-.142 2.484-1.552 10.394-1.091 12.533.531 2.459 5.809 10.319 5.809 10.319z" transform="translate(-1683.081 -1068.773)" style="fill:#f7a491"/>
        <path data-name="&lt;Path&gt;" d="M2063.9 1356.811s9.508.237 11.6.408 9.662-.459 9.956-.493 2.234-3.32 2.557-2.967-1.08 1.629-.646 1.96 5.093-.41 5.031-.066c-.116.645-2.834.562-2.831.873s2.844-.174 3.037.342-2.734.211-2.851.441 2.714.652 2.425 1.133c-.157.261-2.509-.436-2.5-.08s1.727 1.165 1.516 1.448-1.346-.869-2.342-.884-1.708-.534-3.3-.1-7 2.619-10.394 2.459-10.88-.5-10.88-.5z" transform="translate(-1797.573 -1192.623)" style="fill:#f7a491"/>
        <path data-name="&lt;Path&gt;" d="M1958.688 1363.065c-.13-1.568-.349-5.8-.278-6.32a26.922 26.922 0 0 0-2.568-4.727s2.348-2.66 4.089-2.637a14.61 14.61 0 0 0 3.227 3.056 3.413 3.413 0 0 0 .691.206 56.526 56.526 0 0 1 6.83.108l-.49 7.166c-.25.411-.552 8.651-1.065 9.329s-7.978 3.765-9.215 2.969c-.05-.031-.96-5.98-1.221-9.15z" transform="translate(-1706.319 -1188.948)" style="fill:#50bfa5"/>
        <path data-name="&lt;Path&gt;" d="M2035.729 1369.979c.855-.409 7.1-.4 7.1-.4s.865 4.311.166 5.347c0 0-5.535.823-5.378 1.278z" transform="translate(-1773.786 -1206.01)" style="fill:#50bfa5"/>
        <path data-name="&lt;Path&gt;" d="M2005.864 1346.346a19.1 19.1 0 0 0-.384 3.467c.1.981-.366 4.141-2.442 4.152s-.394-4.018-.2-4.979a36.759 36.759 0 0 0 .242-3.936z" transform="translate(-1745.31 -1185.29)" style="fill:#f7a491"/>
        <path data-name="&lt;Path&gt;" d="M2008.615 1346.542c.032-.814.043-1.493.043-1.493l2.784 1.3s-.1.508-.2 1.156a2.43 2.43 0 0 1-2.627-.963z" transform="translate(-1750.887 -1185.29)" style="fill:#f47458"/>
        <path data-name="&lt;Path&gt;" d="M2006.726 1307.478a3.449 3.449 0 0 1 1.465 1.885c.392 1.29-.054 4.618-2.825 5.421s-3.971-1.832-3.4-3.892 1.811-4.671 4.76-3.414z" transform="translate(-1745.154 -1153.283)" style="fill:#f7a491"/>
        <path data-name="&lt;Path&gt;" d="M2000.445 1320.315c.054.553.36.976.682.945s.54-.506.486-1.059-.36-.976-.682-.945-.54.505-.486 1.059z" transform="translate(-1743.98 -1163.506)" style="fill:#f7a491"/>
        <path data-name="&lt;Path&gt;" d="M1944.79 1726.464c.16-.445 1.974.894 2.4 1.163a.92.92 0 0 1 .518.743c-.023.216-4.325 5.906-5.613 6.716a.755.755 0 0 1-.461.06c-.74-.256.292-4.825 1.22-5.753a5.812 5.812 0 0 0 1.936-2.929z" transform="translate(-1694.109 -1507.323)" style="fill:#3c8f7c"/>
        <g data-name="&lt;Group&gt;">
            <path data-name="&lt;Path&gt;" d="m1912 1087.669-7.633 2.714a1.254 1.254 0 0 0-.791.859l-2.089 7.848a1.252 1.252 0 0 1-2.205.44l-4.943-6.446a1.255 1.255 0 0 0-1.061-.49l-8.091.421a1.259 1.259 0 0 1-1.1-1.968l4.578-6.7a1.26 1.26 0 0 0 .136-1.162l-2.911-7.587a1.254 1.254 0 0 1 1.525-1.656l7.772 2.306a1.251 1.251 0 0 0 1.145-.228l6.291-5.111a1.255 1.255 0 0 1 2.044.945l.225 8.123a1.261 1.261 0 0 0 .572 1.021l6.8 4.429a1.259 1.259 0 0 1-.264 2.242z" transform="translate(-1645.535 -953.54)" style="fill:#f7cc7f"/>
        </g>
        <path data-name="&lt;Path&gt;" d="M1951.665 1212.37c.284.418-1.258 1.743-1.686 2.474l-.969-1.319c.478-.093 2.33-1.633 2.655-1.155z" transform="translate(-1700.55 -1073.163)" style="fill:#f7a491"/>
        <path data-name="&lt;Path&gt;" d="M2031.245 1308.181s.5 3.712 1.7 4.382.7 2.317.7 2.317 1.089-3.824.14-5.052a5.282 5.282 0 0 0-2.54-1.647z" transform="translate(-1769.998 -1154.154)" style="fill:#13375b"/>
        <path data-name="&lt;Path&gt;" d="M2036.3 1336.729c-.325.484-.324 1.054 0 1.274s.856.006 1.181-.477.324-1.054 0-1.274-.853-.007-1.181.477z" transform="translate(-1774.064 -1177.787)" style="fill:#f7a491"/>
        <path data-name="&lt;Path&gt;" d="m1946.438 1214.87.022.026.351.458a1.4 1.4 0 0 0-1.23.118 1.494 1.494 0 0 1 .857-.602z" transform="translate(-1697.655 -1075.352)" style="fill:#f47257"/>
    </g>
    <g data-name="&lt;Group&gt;">
        <path data-name="&lt;Path&gt;" d="M1495.8 678.627a7.475 7.475 0 0 1-.774 2.4q-1.122 1.355-2.124 2.792c.461-.033.925-.054 1.394-.054a17.654 17.654 0 0 1 12.085 4.573 12.469 12.469 0 0 1 0 19.028 18.255 18.255 0 0 1-24.145.023l-.692 2.05a5.322 5.322 0 0 0-2.648 4.81c0 2.88 1.933 5.214 4.317 5.214a4.454 4.454 0 0 0 4.057-3.463 22.174 22.174 0 0 0 7.021 1.134c11.484 0 20.794-8.632 20.794-19.28-.001-10.181-8.509-18.511-19.285-19.227z" transform="translate(-1303.528 -622.489)" style="fill:#e0973f"/>
        <path data-name="&lt;Path&gt;" d="M883.121 678.627a7.466 7.466 0 0 0 .774 2.4q1.122 1.355 2.124 2.792a19.519 19.519 0 0 0-1.394-.054 17.653 17.653 0 0 0-12.085 4.573 12.469 12.469 0 0 0 0 19.028 18.254 18.254 0 0 0 24.145.023l.692 2.05a5.322 5.322 0 0 1 2.648 4.81c0 2.88-1.933 5.214-4.317 5.214a4.453 4.453 0 0 1-4.062-3.463 22.173 22.173 0 0 1-7.021 1.134c-11.484 0-20.793-8.632-20.793-19.28 0-10.181 8.508-18.511 19.289-19.227z" transform="translate(-784.104 -622.489)" style="fill:#e0973f"/>
        <path data-name="&lt;Path&gt;" d="M1070.047 664.508v5.323a43.565 43.565 0 0 1-43.562 43.562c-11.08-.147-18.682 1-29.2-3.659a43.574 43.574 0 0 1-26.07-39.9v-5.323z" transform="translate(-874.789 -610.565)" style="fill:#f7cc7f"/>
        <path data-name="&lt;Path&gt;" d="m1067.4 709.733.033.015 15.659-45.24h-16.3l-12.551 36.268a43.619 43.619 0 0 0 13.159 8.957z" transform="translate(-944.907 -610.565)" style="fill:#fae0b2"/>
        <path data-name="&lt;Path&gt;" d="m1163.594 712.786 16.523-48.278h-8.188l-15.848 46.311a39.52 39.52 0 0 0 7.513 1.967z" transform="translate(-1030.912 -610.565)" style="fill:#fae0b2"/>
        <path data-name="&lt;Path&gt;" d="m1029.275 699.118 12.357-34.611h-3.893l-11.18 31.315q1.279 1.717 2.716 3.296z" transform="translate(-921.529 -610.565)" style="fill:#fae0b2"/>
        <path data-name="&lt;Path&gt;" d="M1057.124 645.1h-89.956c-3.283 0-5.959 1.827-6.148 4.129h102.252c-.189-2.299-2.865-4.129-6.148-4.129z" transform="translate(-866.181 -594.178)" style="fill:#f7cc7f"/>
        <path data-name="&lt;Path&gt;" d="m1181.615 970.707 5.09 26.128h22.256l6.306-26.128z" transform="translate(-1052.476 -869.154)" style="fill:#f7cc7f"/>
        <path data-name="&lt;Path&gt;" d="m1215.272 970.719-1.423 5.9h-31.079l-1.15-5.9z" transform="translate(-1052.48 -869.164)" style="fill:#b75742"/>
        <path data-name="&lt;Path&gt;" d="M1215.272 1204.713h-33.652l2.523-12.969 2.564-13.16h22.26l3.178 13.16z" transform="translate(-1052.48 -1044.708)" style="fill:#f7cc7f"/>
        <path data-name="&lt;Path&gt;" d="M1215.272 1276.188h-33.652l2.523-12.969h28z" transform="translate(-1052.48 -1116.184)" style="fill:#b75742"/>
        <path data-name="&lt;Path&gt;" d="M1206.26 1138.747h-30.065a2.4 2.4 0 0 0-2.4 2.4v1.391a2.4 2.4 0 0 0 2.4 2.4h30.065a2.4 2.4 0 0 0 2.4-2.4v-1.391a2.4 2.4 0 0 0-2.4-2.4z" transform="translate(-1045.87 -1011.065)" style="fill:#fae0b2"/>
        <g data-name="&lt;Group&gt;">
            <path data-name="&lt;Path&gt;" d="M1198.111 1288.915h-39.749v-7.14a1.392 1.392 0 0 1 1.393-1.392h36.964a1.392 1.392 0 0 1 1.392 1.392z" transform="translate(-1032.838 -1130.679)" style="fill:#f7cc7f"/>
            <path data-name="&lt;Path&gt;" d="M1139.9 1338.627v2.6h-66.021v-2.6c0-2.991 1.826-5.419 4.075-5.419h57.871c2.248.001 4.075 2.428 4.075 5.419z" transform="translate(-961.49 -1175.291)" style="fill:#f7cc7f"/>
            <path data-name="&lt;Path&gt;" d="m1147.536 1333.209-2.089 8.014h-2.755l2.089-8.014z" transform="translate(-1019.604 -1175.291)" style="fill:#fae0b2"/>
            <path data-name="&lt;Path&gt;" d="m1122.147 1333.209-2.089 8.014h-2.758l2.092-8.014z" transform="translate(-998.16 -1175.291)" style="fill:#fae0b2"/>
            <path data-name="&lt;Path&gt;" d="m1170.075 1333.209-2.089 8.014h-2.759l2.092-8.014z" transform="translate(-1038.636 -1175.291)" style="fill:#fae0b2"/>
        </g>
        <g data-name="&lt;Group&gt;">
            <path data-name="&lt;Path&gt;" d="M1055.7 1736.671v2.6H945.068v-2.6c0-2.991 3.059-5.418 6.828-5.418h96.975c3.77 0 6.829 2.427 6.829 5.418z" transform="translate(-852.709 -1511.444)" style="fill:#f7cc7f"/>
            <path data-name="&lt;Path&gt;" d="m1068.5 1731.253-3.5 8.014h-4.617l3.5-8.014z" transform="translate(-950.091 -1511.444)" style="fill:#fae0b2"/>
            <path data-name="&lt;Path&gt;" d="m1025.952 1731.253-3.5 8.014h-4.623l3.506-8.014z" transform="translate(-914.157 -1511.444)" style="fill:#fae0b2"/>
            <path data-name="&lt;Path&gt;" d="m1106.265 1731.253-3.5 8.014h-4.623l3.506-8.014z" transform="translate(-981.982 -1511.444)" style="fill:#fae0b2"/>
        </g>
        <path data-name="&lt;Path&gt;" d="M1163.714 938.959v1.959a6.135 6.135 0 0 1-6.134 6.139h-44.318a6.136 6.136 0 0 1-6.139-6.139v-1.959z" transform="translate(-989.567 -842.342)" style="fill:#f7cc7f"/>
        <path data-name="&lt;Path&gt;" d="M1105.678 1438.635h-83.253l1.015-53.875h81.121z" transform="translate(-918.037 -1218.826)" style="fill:#c25a2f"/>
        <path data-name="&lt;Path&gt;" d="M1193.41 1438.635h-43.657l.532-53.875h42.539z" transform="translate(-1025.568 -1218.826)" style="fill:#ff7c45"/>
    </g>
    <path data-name="&lt;Path&gt;" d="M628.662 1782.795H351.7a.627.627 0 1 0 0 1.254h276.962a.627.627 0 1 0 0-1.254z" transform="translate(-351.073 -1554.971)" style="fill:#fff"/>
    <g data-name="&lt;Group&gt;" transform="translate(135.285 136.218)">
        <g data-name="&lt;Group&gt;">
            <path data-name="&lt;Path&gt;" d="m1287.713 1376.149-6.6-10.779-9.7 8.1 9.983-60.784 16.3 2.677z" transform="translate(-1263.593 -1294.178)" style="fill:#b75742"/>
            <path data-name="&lt;Path&gt;" d="m1426.721 1373.4-9.721-8.079-6.577 10.794-10.123-60.761 16.3-2.715z" transform="translate(-1372.443 -1294.139)" style="fill:#b75742"/>
        </g>
        <path data-name="&lt;Path&gt;" d="M1288.844 1226.15c0 3.512-3.1 6.491-4.125 9.66-1.066 3.284-.349 7.507-2.339 10.24-2.009 2.761-6.261 3.374-9.021 5.384-2.734 1.989-4.62 5.854-7.9 6.921-3.169 1.029-6.952-.956-10.464-.956s-7.3 1.984-10.464.956c-3.284-1.066-5.171-4.932-7.9-6.921-2.761-2.009-7.012-2.623-9.021-5.384-1.989-2.733-1.272-6.956-2.338-10.24-1.029-3.168-4.125-6.148-4.125-9.659s3.1-6.491 4.125-9.66c1.066-3.284.349-7.507 2.339-10.24 2.009-2.761 6.261-3.374 9.021-5.383 2.734-1.989 4.62-5.854 7.9-6.921 3.169-1.029 6.952.956 10.464.956s7.3-1.984 10.464-.956c3.284 1.066 5.17 4.932 7.9 6.921 2.76 2.009 7.012 2.623 9.021 5.384 1.989 2.733 1.272 6.957 2.338 10.24 1.029 3.167 4.125 6.146 4.125 9.658z" transform="translate(-1221.139 -1193.649)" style="fill:#f47458"/>
        <path data-name="&lt;Path&gt;" d="M1276.77 1269.538a18.042 18.042 0 0 1-3.614-.56 17.161 17.161 0 0 0-9.645 0 18.038 18.038 0 0 1-3.614.559 4.08 4.08 0 0 1-1.269-.175c-1.354-.439-2.568-1.818-3.853-3.278a21.4 21.4 0 0 0-3.363-3.292 21.675 21.675 0 0 0-4.211-2.215c-1.774-.771-3.449-1.5-4.269-2.628-.807-1.109-.985-2.919-1.173-4.835a22.085 22.085 0 0 0-.815-4.718 21.005 21.005 0 0 0-2.063-4.156c-1-1.685-1.942-3.276-1.942-4.745s.943-3.06 1.942-4.745a20.992 20.992 0 0 0 2.063-4.156 22.043 22.043 0 0 0 .816-4.719c.188-1.916.366-3.726 1.172-4.835.821-1.128 2.5-1.856 4.269-2.628a21.7 21.7 0 0 0 4.212-2.215 21.421 21.421 0 0 0 3.364-3.292c1.285-1.46 2.5-2.839 3.853-3.278a4.087 4.087 0 0 1 1.269-.175 18.032 18.032 0 0 1 3.614.56 17.162 17.162 0 0 0 9.645 0 18.025 18.025 0 0 1 3.614-.56 4.087 4.087 0 0 1 1.269.175c1.354.44 2.568 1.819 3.854 3.279a21.444 21.444 0 0 0 3.363 3.292 21.7 21.7 0 0 0 4.211 2.215c1.774.771 3.449 1.5 4.269 2.628.807 1.109.985 2.919 1.173 4.835a22.1 22.1 0 0 0 .815 4.718 21 21 0 0 0 2.064 4.156c1 1.685 1.942 3.275 1.942 4.745s-.944 3.06-1.942 4.745a20.953 20.953 0 0 0-2.063 4.156 22.071 22.071 0 0 0-.816 4.718c-.188 1.916-.365 3.727-1.173 4.835-.821 1.128-2.5 1.856-4.269 2.628a21.677 21.677 0 0 0-4.212 2.215 21.406 21.406 0 0 0-3.363 3.292c-1.286 1.46-2.5 2.839-3.854 3.278a4.078 4.078 0 0 1-1.27.176z" transform="translate(-1234.481 -1206.994)" style="fill:#f7cc7f"/>
        <circle data-name="&lt;Path&gt;" cx="24.66" cy="24.66" r="24.66" transform="translate(9.193 7.84)" style="fill:#f47458"/>
        <ellipse data-name="&lt;Path&gt;" cx="23.432" cy="23.431" rx="23.432" ry="23.431" transform="translate(10.421 9.07)" style="fill:#fff"/>
        <circle data-name="&lt;Path&gt;" cx="21.243" cy="21.243" r="21.243" transform="translate(12.61 11.257)" style="fill:#f7cc7f"/>
        <g data-name="&lt;Group&gt;">
            <path data-name="&lt;Compound Path&gt;" d="M8.515 19.768H6.69l.791-5.961H4.318l-.791 5.961H1.7l.791-5.961H0v-1.794h2.767L3.345 7.6H.73V5.809h2.889L4.409 0h1.765l-.76 5.809h3.162L9.367 0h1.794L10.4 5.809h2.494V7.6h-2.767l-.547 4.41h2.62v1.794H9.306l-.791 5.961zM5.17 7.6l-.578 4.41h3.163l.578-4.41z" transform="translate(20.681 21.7)" style="fill:#fff"/>
            <path data-name="&lt;Compound Path&gt;" d="M1468.478 1335.7h-.061l-3.437 1.855-.517-2.038 4.319-2.311h2.281v19.768h-2.585z" transform="translate(-1426.63 -1311.509)" style="fill:#fff"/>
        </g>
    </g>
    <g data-name="&lt;Group&gt;">
        <g data-name="&lt;Group&gt;">
            <path data-name="&lt;Path&gt;" d="M1569.552 407.251c-.232.953-.651 2.46-.651 2.46.033.414.155 2.138.3 4.251l-3.105-1.243a33.521 33.521 0 0 0-.1-3.653c-.117-.178-.314.044-1.266-1.318a2.657 2.657 0 0 1-.326-1.1s-.057-.865.137-.945a.4.4 0 0 1 .487.2c.07.149.052.5.123.647a1.075 1.075 0 0 0 .709.32 11.571 11.571 0 0 0-.024-2.558s-.105-.723-.159-.959c-.046-.2-.229-.793-.229-.793s-.215-.858.051-.923c.157-.039.557.658.831 1.4a15.045 15.045 0 0 0 .547 1.63c.2-.027.093-1.424.093-1.424a4.472 4.472 0 0 1-.192-.942c-.187-.37-.31-1.057.018-1.113a5.713 5.713 0 0 1 .494.862s.17.614.269.9c.175.506.2 1.306.292 1.658.076.293.145.173.176.185a7.336 7.336 0 0 0-.067-.951 5.582 5.582 0 0 0-.07-.922 6.708 6.708 0 0 1-.133-.973c-.053-.723.4-.649.559.012.06.252.123.526.186.805.244 1.083.237 2.127.354 2.136a7.866 7.866 0 0 0 .052-1.889s.233-1.052.464-.076a8.5 8.5 0 0 1 .237 2.1 8.224 8.224 0 0 1-.057 2.216z" transform="translate(-1375.738 -388.187)" style="fill:#f8a492"/>
            <path data-name="&lt;Path&gt;" d="M1516.186 463.628s-3.5-.837-3.532-.556c-.735 6.155-1.065 8.381-1.19 8.445-.424.218-6.045-4.922-7.048-5.27a4.181 4.181 0 0 0-1.5-.124c-1.192.035-1.427.04-1.427.04h-.044l.006 1.121c1.343 1.209 4.418 19.515 4.677 19.5.289-.013 6.367 1.516 6.26 1-.017-.083-4.121-3.441-5.284-8.287-.391-1.627-.584-3.379-.8-4.911 1.35.677 6.625 3.273 7.461 2.93 2.604-1.058 2.421-13.888 2.421-13.888z" transform="translate(-1322.574 -440.4)" style="fill:#3c8f7c"/>
            <path data-name="&lt;Path&gt;" d="M1663.574 665.266s5.655 4.43 5.844 5.215c.272 1.131 5.45-.356 4.2-.586-.287-.053-1.207-.286-1.283-.327-.4-.216-5.436-6.28-5.436-6.28z" transform="translate(-1459.496 -609.535)" style="fill:#f7a491"/>
            <path data-name="&lt;Path&gt;" d="m1706.683 704.179-3.611-.294a5.117 5.117 0 0 1-3.016.894 4.623 4.623 0 0 0-.166 1.965c.026.183.057.735.241.722.667-.045 2.444-.488 4.469-.893a17.454 17.454 0 0 0 4.293-1.517c1.573-.939-2.21-.877-2.21-.877z" transform="translate(-1490.131 -643.819)" style="fill:#b75742"/>
            <path data-name="&lt;Path&gt;" d="M1492.847 592.9a24.718 24.718 0 0 0 8.721-.376c5.3-1.24 11.16-2.386 12.877-1.388 1.382.8 10.012 13.844 10.012 13.844l-3.333 2.432-9.5-10.641s-12.124 4.473-14.847 3.978c-6.204-1.126-6.292-6.078-3.93-7.849z" transform="translate(-1314.107 -548.283)" style="fill:#13375b"/>
            <path data-name="&lt;Path&gt;" d="m1505.142 587.62 4.144 4.924-7.687 2.342-.984-4.635z" transform="translate(-1321.875 -545.632)" style="fill:#13375b"/>
            <path data-name="&lt;Path&gt;" d="M1581.641 732.275s-.252 6.839-.408 8 2.9 4.627 2.512 3.418c-.09-.278-.321-1.2-.322-1.284 0-.458 1.134-8.261 1.134-8.261z" transform="translate(-1389.952 -667.795)" style="fill:#f7a491"/>
            <path data-name="&lt;Path&gt;" d="m1569.916 789.675-2.259-3.675a5.119 5.119 0 0 1-2.22-2.228 4.623 4.623 0 0 0-1.808.787c-.149.11-1.16.849-1.089 1.02a19.438 19.438 0 0 0 3.143 3.443 40.547 40.547 0 0 0 3.709 2.658c1.574.94.524-2.005.524-2.005z" transform="translate(-1374.169 -711.287)" style="fill:#b75742"/>
            <path data-name="&lt;Path&gt;" d="M1498.877 591.083c-1.448-1.931-13.135-3.765-13.135-3.765l-3.259-6.263-7.206 4.444a65.217 65.217 0 0 0 1.261 7.266c.721 2.042 5.563 2.146 8.521 2.115 2.721-.028 7.693.527 7.693.527l-1.681 14.832a23.229 23.229 0 0 0 4.233.631c.105-.014 5.374-17.385 3.573-19.787z" transform="translate(-1300.477 -540.087)" style="fill:#355389"/>
            <path data-name="&lt;Path&gt;" d="m1478.172 483.345-4.065.227s-.093.029-.122.034c-.331.061-.03 11.909.265 16.334a29.589 29.589 0 0 0 .895 6.284 66.227 66.227 0 0 0 7.206-1.636 12.425 12.425 0 0 0 2.4-2.4 17.829 17.829 0 0 1-2.611-6.127c-.675-2.925-1.506-8.109-1.983-9.191a15.43 15.43 0 0 0-1.985-3.525z" transform="translate(-1299.263 -457.57)" style="fill:#9bc1f9"/>
        </g>
        <path data-name="&lt;Path&gt;" d="m1475.67 458.7-.116 3.59s2.632 4.535 3.983 3.9c1.134-.53.127-3.98.127-3.98s-.2-.791-.469-1.7a6.574 6.574 0 0 1-.337-1.827c.03-1.224-3.188.017-3.188.017z" transform="translate(-1300.711 -436.289)" style="fill:#f7a491"/>
        <path data-name="&lt;Path&gt;" d="M1479.425 458.686c.028-1.227-3.19.014-3.19.014l-.011.351a1.81 1.81 0 0 0 .359.409 4.429 4.429 0 0 0 3.134.9 6.17 6.17 0 0 1-.292-1.674z" transform="translate(-1301.276 -436.289)" style="fill:#f47458"/>
        <g data-name="&lt;Group&gt;">
            <path data-name="&lt;Path&gt;" d="M1479.559 409.065a9.368 9.368 0 0 1 1.441 3.723 8.825 8.825 0 0 1-.26 2.862l-4.3-5.144z" transform="translate(-1301.455 -394.841)" style="fill:#184655"/>
            <path data-name="&lt;Path&gt;" d="M1501.79 425.248c.061.6-.171 1.107-.517 1.143s-.676-.419-.737-1.015.171-1.107.517-1.143.676.419.737 1.015z" transform="translate(-1321.799 -407.649)" style="fill:#f48c7f"/>
            <path data-name="&lt;Path&gt;" d="M1467.286 414.323c-.1-.021-.089 4.932 1.347 6.1s3.934 1.268 4.663.094c.807-1.3.04-6.517-2.1-7.625s-3.91 1.431-3.91 1.431z" transform="translate(-1293.698 -397.834)" style="fill:#f7a491"/>
            <path data-name="&lt;Path&gt;" d="M1450.944 397.764a7.957 7.957 0 0 0-2.368 3.371c-.912 2.1.9 4.277 2.414 5.141a2.92 2.92 0 0 1 1.643 1.91l.063-.644a1.6 1.6 0 0 0-.02-.593 2.767 2.767 0 0 0-.216-.523c-.129-.276-.544-1.222-.706-1.471-.427-.658-.511-.8-.3-1.426.162-.482-.025-1.543.225-2.337l2.042-.44a4.274 4.274 0 0 0 1.923-1.051c1.856-2.138-1.81-4.522-4.7-1.937z" transform="translate(-1277.719 -384.345)" style="fill:#184655"/>
            <path data-name="&lt;Path&gt;" d="M1464.469 440.346c.252.543.2 1.1-.117 1.249s-.776-.176-1.027-.719-.2-1.1.117-1.249.775.173 1.027.719z" transform="translate(-1290.248 -420.621)" style="fill:#f7a491"/>
        </g>
        <path data-name="&lt;Path&gt;" d="M1381.455 323.646c.232.953.651 2.46.651 2.46-.033.414-.156 2.138-.3 4.251l3.105-1.243a33.579 33.579 0 0 1 .1-3.653c.117-.178.314.044 1.266-1.318a2.657 2.657 0 0 0 .326-1.1s.057-.865-.138-.945a.4.4 0 0 0-.487.2c-.07.15-.052.5-.122.647a1.076 1.076 0 0 1-.709.32 11.571 11.571 0 0 1 .024-2.558s.105-.723.159-.959c.046-.2.229-.793.229-.793s.216-.858-.051-.923c-.157-.039-.557.658-.831 1.4a15.041 15.041 0 0 1-.547 1.63c-.2-.027-.093-1.424-.093-1.424a4.482 4.482 0 0 0 .193-.942c.187-.37.31-1.057-.018-1.113a5.694 5.694 0 0 0-.494.862s-.17.614-.269.9c-.175.506-.2 1.305-.293 1.658-.076.293-.145.173-.176.185a7.352 7.352 0 0 1 .067-.951 5.6 5.6 0 0 1 .07-.922 6.726 6.726 0 0 0 .133-.973c.053-.723-.4-.649-.559.012-.06.252-.123.526-.186.8-.245 1.083-.237 2.127-.354 2.136a7.866 7.866 0 0 1-.052-1.889s-.233-1.052-.464-.076a8.5 8.5 0 0 0-.237 2.1 8.218 8.218 0 0 0 .057 2.221z" transform="translate(-1221.147 -317.582)" style="fill:#f8a492"/>
        <path data-name="&lt;Path&gt;" d="M1389.539 394.82s-4.031-.188-5.071-.658c-.631-.285-5.81-4.458-5.81-4.458l.058-11.174-3.642-.277s-1.889 12.351-1.234 13.7c.676 1.4 8.257 7.144 9.773 9.638.873 1.437 2.695 20.978 2.971 21.154 1.961 1.021 8.019 2.04 7.876 1.421a224.636 224.636 0 0 1-4.921-29.346z" transform="translate(-1214.695 -368.819)" style="fill:#3c8f7c"/>
    </g>
    <g data-name="&lt;Group&gt;" transform="translate(102.406 67.657)">
        <path data-name="&lt;Path&gt;" d="M1009.794 774.924c.232.953.651 2.46.651 2.46a699.11 699.11 0 0 0-.3 4.251l3.105-1.243a33.523 33.523 0 0 1 .1-3.653c.117-.178.314.044 1.266-1.318a2.661 2.661 0 0 0 .326-1.1s.057-.865-.138-.945a.4.4 0 0 0-.487.2c-.07.15-.052.5-.123.647a1.075 1.075 0 0 1-.709.32 11.559 11.559 0 0 1 .024-2.558s.106-.723.159-.959c.046-.2.229-.793.229-.793s.215-.858-.051-.923c-.157-.039-.557.658-.831 1.4a14.965 14.965 0 0 1-.547 1.63c-.2-.027-.093-1.424-.093-1.424a4.48 4.48 0 0 0 .193-.942c.187-.37.31-1.057-.018-1.113a5.691 5.691 0 0 0-.494.862s-.17.614-.269.9c-.175.506-.2 1.305-.293 1.658-.076.293-.145.173-.176.185a7.347 7.347 0 0 1 .067-.951 5.61 5.61 0 0 1 .071-.922 6.735 6.735 0 0 0 .133-.973c.053-.723-.4-.649-.559.012-.06.252-.123.526-.186.8-.244 1.083-.237 2.127-.354 2.136a7.864 7.864 0 0 1-.052-1.889s-.233-1.052-.464-.076a8.5 8.5 0 0 0-.236 2.1 8.209 8.209 0 0 0 .056 2.221z" transform="translate(-1009.681 -766.349)" style="fill:#f8a492"/>
        <path data-name="&lt;Path&gt;" d="M1194.384 758.772c-.232.953-.651 2.46-.651 2.46.033.414.156 2.138.3 4.251l-3.105-1.243a33.521 33.521 0 0 0-.1-3.653c-.117-.178-.314.044-1.266-1.318a2.659 2.659 0 0 1-.326-1.1s-.057-.865.138-.945a.4.4 0 0 1 .487.2c.07.149.052.5.122.647a1.076 1.076 0 0 0 .709.32 11.556 11.556 0 0 0-.023-2.558s-.106-.723-.159-.959c-.046-.2-.229-.793-.229-.793s-.216-.858.051-.923c.157-.039.557.658.831 1.4a15 15 0 0 0 .547 1.63c.2-.027.094-1.424.094-1.424a4.469 4.469 0 0 1-.193-.942c-.187-.37-.311-1.057.018-1.113a5.7 5.7 0 0 1 .494.862s.17.614.27.9c.175.506.2 1.305.292 1.658.076.293.145.173.176.185a7.4 7.4 0 0 0-.067-.951 5.581 5.581 0 0 0-.07-.922 6.744 6.744 0 0 1-.133-.973c-.053-.723.4-.649.559.012.06.252.123.526.186.8.244 1.083.237 2.127.354 2.136a7.861 7.861 0 0 0 .052-1.889s.233-1.052.464-.076a8.512 8.512 0 0 1 .237 2.1 8.225 8.225 0 0 1-.059 2.221z" transform="translate(-1161.31 -752.709)" style="fill:#f8a492"/>
        <path data-name="&lt;Path&gt;" d="M1075.57 860.165a1.7 1.7 0 0 1 2.852.361 1.264 1.264 0 0 1 1.666.43s1.769-.532 2.2 2.113c0 0 .911-.172 1.031.91a2.678 2.678 0 0 1-.429 1.8s.511.384.279 1.379a1.231 1.231 0 0 1-.9.975s-.189 1.426-.807 1.855a2.017 2.017 0 0 1-1.46.223.953.953 0 0 1-.945.7c-.721-.069-1.615-.756-2.422-.447a8.626 8.626 0 0 1-2.9-.017 2.927 2.927 0 0 1-1.649-3.453 1.759 1.759 0 0 1-.155-2.457 3.062 3.062 0 0 1 .773-3.333 4.078 4.078 0 0 1 2.866-1.039z" transform="translate(-1061.874 -842.913)" style="fill:#07345a"/>
        <path data-name="&lt;Path&gt;" d="M1154.156 1312.641a23.719 23.719 0 0 0 2.151 2.4c.429.262-.192 3.364-1.36 3.568-.658.115-1.025-.61-1.025-.61l.189-.893-2.46-2.535z" transform="translate(-1129.576 -1225.579)" style="fill:#f7a491"/>
        <path data-name="&lt;Path&gt;" d="M1095.883 1316.032a23.738 23.738 0 0 0 1.827 2.652c.392.315-.62 3.312-1.8 3.365-.668.03-.938-.736-.938-.736l.3-.862-2.116-2.828z" transform="translate(-1080.174 -1228.442)" style="fill:#f7a491"/>
        <path data-name="&lt;Path&gt;" d="M1096.469 1332.5a18.092 18.092 0 0 1-1.274 1.469 15.149 15.149 0 0 1-1.324 1.068s-.842 1.528-1.072 2.062a8.89 8.89 0 0 0-1 3.175c.027.213.506.44.905.316 1.663-.511 5.916-4.4 6.453-5.445.614-1.203-2.688-2.645-2.688-2.645z" transform="translate(-1079.02 -1242.351)" style="fill:#07345a"/>
        <path data-name="&lt;Path&gt;" d="M1034.832 1096.99c.154-.432.3-.832.446-1.208 1.769.386 3.767.811 5.822 1.249l.25 7.534c0-.582-1.545 12.016-1.545 12.016s3.994 8.843 6.725 14a9.424 9.424 0 0 1-3.271 2.8c-4.24-5.083-9.79-14.385-10.02-15.932-.132-.891-.251-15.272 1.593-20.459z" transform="translate(-1029.521 -1042.438)" style="fill:#b75742"/>
        <path data-name="&lt;Path&gt;" d="M1093.673 1105.951c-.54 5.87-1.742 17.093-1.642 18 .3 1.125 5.647 11.51 6.609 13.022a6.484 6.484 0 0 1-3.219 2.738c-.251.068-9.073-12.486-9.554-13.482-.544-1.126-1.449-7.271-1.466-14.878l-.25-7.534c3.426.725 6.575 1.442 9.522 2.134z" transform="translate(-1072.573 -1049.22)" style="fill:#f47458"/>
        <path data-name="&lt;Path&gt;" d="m1041.795 945.468 4.031.553s3.231.079 3.631.079 2.932 14.7 3.665 20.238.165 6.514.165 6.514a35.476 35.476 0 0 1-8.892.815 29 29 0 0 1-8.356-2.471s3.361-10.635 4.027-13.955 1.729-11.773 1.729-11.773z" transform="translate(-1031.94 -915.496)" style="fill:#96d9c9"/>
        <path data-name="&lt;Path&gt;" d="M1009.76 827.755s-.259 10.964.155 11.8c.6 1.22 7.37 9.87 7.37 9.87s-3.233 13.531-4.593 18.2c-.137.471-.743 3.51-.743 3.807 0 .657 2.861 1.491 3.2 1.442.3-.044 2.8-12.916 4.393-19.214a18.012 18.012 0 0 1 2.733-5.952l1.108-1.574-8.5-8.523s-1.048-9.487-1.048-10.273c-.003-.201-3.662-.356-4.075.417z" transform="translate(-1009.681 -815.596)" style="fill:#13375b"/>
        <path data-name="&lt;Path&gt;" d="m1104.678 829.414 10.6-10.8s1.478-10.217 1.583-10.6 2.737-.582 3.8-.686c.34-.033-.178 10.882-.686 12.712-.6 2.162-8.615 12.01-8.615 12.01s-1.437 5.334-1.091 9.247c.575 6.5 2.124 15.438 1.846 15.719-1.723 1.085-8.338 1.2-8.756.527-4.621-7.451 1.319-28.129 1.319-28.129z" transform="translate(-1087.307 -798.83)" style="fill:#13375b"/>
        <path data-name="&lt;Path&gt;" d="m1096.637 918.268-.286 2.123s-.641 3.058.184 3.648 3.506-3.735 3.506-3.735l-.283-5.378z" transform="translate(-1082.674 -889.702)" style="fill:#f7a491"/>
        <path data-name="&lt;Path&gt;" d="M1101.374 916.668a6.1 6.1 0 0 1-3.455 3.4l.243-1.8 3.121-3.343z" transform="translate(-1084.199 -889.702)" style="fill:#f47458"/>
        <ellipse data-name="&lt;Path&gt;" cx="1.483" cy="1.04" rx="1.483" ry="1.04" transform="translate(18.948 20.528)" style="fill:#07345a"/>
        <ellipse data-name="&lt;Path&gt;" cx=".852" cy="1.266" rx=".852" ry="1.266" transform="translate(16.233 17.113)" style="fill:#07345a"/>
        <path data-name="&lt;Path&gt;" d="M1085.877 877.752a2.837 2.837 0 0 0-3.712 2.26 21.412 21.412 0 0 0-.23 2.723c-.045 2.479 1.238 4.892 2.364 4.892a5.312 5.312 0 0 0 4.35-5.125 4.692 4.692 0 0 0-2.772-4.75z" transform="translate(-1070.699 -858.179)" style="fill:#f7a491"/>
        <ellipse data-name="&lt;Path&gt;" cx=".99" cy=".81" rx=".99" ry=".81" transform="translate(16.939 23.791)" style="fill:#f7a491"/>
        <path data-name="&lt;Path&gt;" d="M1069.269 866.538c-1.163.921-1.57 2.321-.91 3.126s2.138.711 3.3-.21 1.57-2.321.91-3.126-2.137-.711-3.3.21z" transform="translate(-1058.968 -848.199)" style="fill:#07345a"/>
        <ellipse data-name="&lt;Path&gt;" cx=".725" cy="1.079" rx=".725" ry="1.079" transform="translate(13.697 18.015)" style="fill:#07345a"/>
        <ellipse data-name="&lt;Path&gt;" cx=".931" cy=".922" rx=".931" ry=".922" transform="translate(10.119 21.252)" style="fill:#07345a"/>
        <path data-name="&lt;Path&gt;" d="M1160.958 1327.545a18.112 18.112 0 0 1-1.076 1.62 15.141 15.141 0 0 1-1.177 1.228s-.64 1.624-.8 2.182a9.424 9.424 0 0 0-.592 3.392c.054.208.512.606.89.36 1.458-.95 5.355-5.4 5.754-6.5.46-1.275-2.999-2.282-2.999-2.282z" transform="translate(-1134.325 -1238.165)" style="fill:#07345a"/>
    </g>
    <path data-name="&lt;Path&gt;" d="M1595.425 1036.224a16.232 16.232 0 0 0-8.085 4.143c-3.435 3.425-5.486 8.927-5.486 8.927l7.034 2.051s-2.812-6.559 6.537-15.121z" transform="translate(-1390.482 -924.484)" style="fill:#fae0b2"/>
    <path data-name="&lt;Path&gt;" d="m1653.794 987.953-.5-3.962-3.549-1.831a.549.549 0 0 1 .017-.984l3.612-1.7.644-3.942a.549.549 0 0 1 .942-.288l2.737 2.909 3.948-.605a.549.549 0 0 1 .564.807l-1.921 3.5 1.8 3.567a.549.549 0 0 1-.593.786l-3.924-.745-2.838 2.81a.549.549 0 0 1-.939-.322z" transform="translate(-1447.562 -872.839)" style="fill:#f7cc7f"/>
    <path data-name="&lt;Path&gt;" d="M882.179 1171.871a16.234 16.234 0 0 1 8.085 4.143c3.435 3.425 5.486 8.927 5.486 8.927l-7.034 2.051s2.813-6.559-6.537-15.121z" transform="translate(-799.599 -1039.039)" style="fill:#fae0b2"/>
    <path data-name="&lt;Path&gt;" d="m827.837 1123.6.5-3.962 3.549-1.831a.549.549 0 0 0-.017-.984l-3.612-1.7-.644-3.942a.549.549 0 0 0-.941-.287l-2.737 2.909-3.948-.605a.549.549 0 0 0-.564.807l1.921 3.5-1.8 3.567a.549.549 0 0 0 .593.786l3.924-.745 2.838 2.81a.549.549 0 0 0 .938-.323z" transform="translate(-746.545 -987.394)" style="fill:#f7cc7f"/>
    <path data-name="&lt;Path&gt;" d="m1871.247 1029.98 1.088-1.837-.9-1.938a.293.293 0 0 1 .33-.41l2.084.467 1.566-1.452a.293.293 0 0 1 .491.188l.2 2.126 1.865 1.04a.293.293 0 0 1-.026.526l-1.96.847-.413 2.1a.293.293 0 0 1-.508.137l-1.411-1.6-2.12.255a.294.294 0 0 1-.286-.449z" transform="translate(-1634.843 -914.779)" style="fill:#466eb6"/>
    <path data-name="&lt;Path&gt;" d="m1196.13 487.959 1.372-2.318-1.132-2.445a.37.37 0 0 1 .417-.517l2.629.589 1.975-1.832a.37.37 0 0 1 .62.237l.252 2.682 2.353 1.313a.37.37 0 0 1-.033.663l-2.473 1.069-.521 2.643a.37.37 0 0 1-.641.173l-1.781-2.022-2.675.321a.37.37 0 0 1-.362-.556z" transform="translate(-1064.689 -455.875)" style="fill:#f79c8d"/>
    <path data-name="&lt;Path&gt;" d="m1812.636 560.956-3.624 2.418 2.027 3.518-3.465 2.54 1.522 3.6-2.282 2.325 1.177 1.155 3.052-3.109-1.442-3.413 3.6-2.642-1.993-3.46 3.284-2.192z" transform="translate(-1580.464 -523.114)" style="fill:#f48c7f"/>
    <path data-name="&lt;Path&gt;" d="m1794.6 907.415-2.564-3.523-3.433 2.168-2.679-3.359-3.536 1.667-2.415-2.186-1.107 1.223 3.231 2.923 3.351-1.58 2.786 3.494 3.377-2.132 2.323 3.192z" transform="translate(-1556.862 -811.284)" style="fill:#f48c7f"/>
    <path data-name="&lt;Path&gt;" d="m1065.763 388.775.87-4.269-3.916-1.071.672-4.243-3.617-1.485-.016-3.258-1.649.008.022 4.357 3.427 1.408-.7 4.414 3.852 1.054-.789 3.868z" transform="translate(-948.171 -365.607)" style="fill:#f48c7f"/>
    <path data-name="&lt;Path&gt;" d="m870.3 503.1 1.659 3.1 3.577-.2 1.613 3.6 3.744-1.388 2 3.995 3.606-.853 2.557 3.528-1.335.968-1.912-2.638-3.8.9-1.927-3.84-3.807 1.411-1.78-3.976-3.493.2-1.537-2.871-2.267.608-.427-1.593z" transform="translate(-786.581 -474.255)" style="fill:#f7cc7f"/>
    <path data-name="&lt;Path&gt;" d="m734.985 622.082-2.64.268-.9-4.2-3.909-.084-1.188-3.033-1.536.6 1.589 4.057 3.7.08.937 4.37 3.973-.4z" transform="translate(-666.7 -568.782)" style="fill:#50bfa5"/>
    <path data-name="&lt;Path&gt;" d="m703.022 953.272-.988 2.463-4.139-1.152-1.889 3.423-3.238-.356-.18 1.639 4.331.476 1.79-3.244 4.305 1.2 1.487-3.706z" transform="translate(-639.487 -854.43)" style="fill:#50bfa5"/>
    <g data-name="&lt;Group&gt;">
        <path data-name="&lt;Path&gt;" d="M737.251 764.985a7.35 7.35 0 1 1-10.393.217 7.35 7.35 0 0 1 10.393-.217z" transform="translate(-666.701 -693.691)" style="fill:#fff3d9"/>
        <path data-name="&lt;Path&gt;" d="m748.652 782.71-3.128.961-.981 3.121a.319.319 0 0 1-.565.088l-1.878-2.68-3.272.031a.319.319 0 0 1-.258-.51l1.965-2.616-1.041-3.1a.319.319 0 0 1 .406-.4l3.1 1.061 2.629-1.949a.319.319 0 0 1 .509.261l-.052 3.272 2.665 1.9a.319.319 0 0 1-.099.56z" transform="translate(-678.262 -705.271)" style="fill:#fed333"/>
    </g>
    <g data-name="&lt;Group&gt;">
        <path data-name="&lt;Path&gt;" d="M1972.2 843.663a7.35 7.35 0 1 1-10.393.217 7.35 7.35 0 0 1 10.393-.217z" transform="translate(-1709.628 -760.136)" style="fill:#fff3d9"/>
        <path data-name="&lt;Path&gt;" d="m1983.6 861.388-3.128.961-.981 3.121a.319.319 0 0 1-.565.088l-1.881-2.677-3.272.032a.319.319 0 0 1-.258-.511l1.965-2.616-1.041-3.1a.319.319 0 0 1 .406-.4l3.1 1.061 2.628-1.949a.319.319 0 0 1 .509.261l-.052 3.272 2.665 1.9a.319.319 0 0 1-.095.557z" transform="translate(-1721.189 -771.716)" style="fill:#fed333"/>
    </g>
    <path data-name="&lt;Path&gt;" d="m1811.248 764.054 1.285 2.134a.325.325 0 0 0 .582-.049l.913-2.318 2.427-.562a.326.326 0 0 0 .134-.568l-1.923-1.584.215-2.482a.326.326 0 0 0-.5-.3l-2.1 1.339-2.294-.972a.326.326 0 0 0-.442.381l.624 2.412-1.633 1.882a.326.326 0 0 0 .226.538z" transform="translate(-1581.849 -689.748)" style="fill:#f47458"/>
    <circle data-name="&lt;Path&gt;" cx="1.49" cy="1.49" r="1.49" transform="translate(221.911 121.71)" style="fill:#50bfa5"/>
    <ellipse data-name="&lt;Path&gt;" cx="1.49" cy="1.612" rx="1.49" ry="1.612" transform="translate(47.509 76.449)" style="fill:#50bfa5"/>
    <g data-name="&lt;Group&gt;">
        <path data-name="&lt;Path&gt;" d="m1211.039 340.621 1.955.386s2.858-1.335 3.075-1.978.118-2.126.536-2.219a1.292 1.292 0 0 1 1.574.927c.233.714-.576 2.961-.381 3.165a10.348 10.348 0 0 0 2.059.554 1.475 1.475 0 0 1 1.115 1.06.812.812 0 0 1-.4.928l-.514.276.242.536a.812.812 0 0 1-.385 1.062l-.4.192.176.323a.811.811 0 0 1-.388 1.129l-.352.151.027.1a.81.81 0 0 1-.474.973l-.351.14-5.206-1.029a3.594 3.594 0 0 1-1.359-.579l-1.77-.67a.416.416 0 0 1-.256-.478l.989-4.625a.415.415 0 0 1 .488-.324z" transform="translate(-1076.074 -333.791)" style="fill:#96d9c9"/>
    </g>
    <g data-name="Group 51492">
        <g data-name="Group 51480" transform="translate(31.994 144.031)">
            <path data-name="Path 35628" d="M629.528 233.158a8.011 8.011 0 0 0-7.336-.171c-3.753 1.962-2.73 6.142-2.474 7.763s-2.559 2.389-3.924 5.8 2.133 5.971 2.986 7.763-.938 1.365.256 3.839 5.118 3.5 7.251 3.5 5.289-1.194 5.289-4.351-3.242-7.848-2.389-9.3 2.133-3.327.6-5.459-3.754-4.095-3.071-5.716a5.214 5.214 0 0 1 2.644-2.389z" transform="translate(-615.481 -229.938)" style="fill:#393762"/>
            <path data-name="Path 35629" d="M578.68 237.524s-2.389-1.876-2.559-3.327.085-3.327 2.645-4.777 6.142.6 6.739 1.876.171 6.484 0 7.507-.171 1.535-1.023 1.535a10.963 10.963 0 0 1-2.3-.426c.137 2.4-.027 1.607.426 2.815.256.682 2.815.939 4.18 1.109s2.645 2.815 2.815 4.862-.682 5.63-.768 7.081a73.276 73.276 0 0 0 1.023 10.919 59.59 59.59 0 0 1 1.877 10.322c.171 3.5 0 11.175 0 11.175a25.139 25.139 0 0 1 1.109 6.227c0 2.73 1.109 11.772 1.194 12.369a6.335 6.335 0 0 0 .768 1.535c.085.256 4.35 2.3 3.839 3.071s-7.763.256-8.445-.341.039-2.024.039-3.048-2.615-11.961-3.127-14.776a43.932 43.932 0 0 1-.239-7.767s-2.133-6.569-2.474-8.275a11.067 11.067 0 0 0-.938-2.815h-1.881s-1.279 8.445-2.047 10.237-1.735 3.067-1.906 4.347-.909 6.061-1.762 7.937-2.133 10.7-2.133 10.7.342 3.071-.6 3.327-5.715 1.024-6.654.6 3.924-3.753 3.924-3.753.683-12.916.683-15.646 2.047-4.863 2.047-6.568.256-8.531.768-12.2a80.391 80.391 0 0 1 1.706-9.64c.512-1.45.426-2.73.426-6.4s-1.706-5.8-2.218-8.616a4.038 4.038 0 0 1 2.73-4.692 3.587 3.587 0 0 0 2.389-2.559 21.01 21.01 0 0 0-.253-3.925z" transform="translate(-563.013 -227.991)" style="fill:#f6ba99"/>
            <path data-name="Path 35630" d="M586.7 335.709a12.715 12.715 0 0 1-3.051-.534c.128-2.4.321-5.067.58-6.924.347-2.486.772-5.36 1.169-7.408 2.339-.133 5.888-.28 8.652-.151a22.032 22.032 0 0 0 5.871-.49c.087.583.174 1.068.26 1.4a59.621 59.621 0 0 1 1.877 10.322c.029.608.049 1.344.06 2.142a19.95 19.95 0 0 1-3.657 1.122 8.637 8.637 0 0 1-2.906-.057c-.383-1.278-.715-2.448-.833-3.037a11.066 11.066 0 0 0-.938-2.815h-1.877s-.5 3.3-1.062 6.209a15.574 15.574 0 0 1-4.145.221z" transform="translate(-573.343 -282.89)" style="fill:#edc13b"/>
            <path data-name="Path 35631" d="M605 236.607a3.181 3.181 0 0 0 1.194.426 7.2 7.2 0 0 1-1.016 1.128c-.052-.419-.093-.7-.093-.7s-2.491-1.878-2.662-3.328a4.465 4.465 0 0 1 2.537-4.835c1.82-1.031 4.362-.234 5.775.738a3.383 3.383 0 0 0-2.835.771c-1.621 1.536.085 2.3-.426 2.9a16.69 16.69 0 0 0-1.023 1.365 1.185 1.185 0 0 0-1.365-.6c-.939.258-.598 1.793-.086 2.135z" transform="translate(-589.418 -227.927)" style="fill:#393762"/>
            <path data-name="Path 35632" d="M603.335 288.82a23.845 23.845 0 0 1-7.174 1.434 40.734 40.734 0 0 1-8.1-1.176 29.978 29.978 0 0 1 .845-3.943c.512-1.45.427-2.73.427-6.4a13.232 13.232 0 0 0-1-4.842 34.547 34.547 0 0 0 .911-3.774 22.176 22.176 0 0 0 .469-4.649c.043-.014.087-.031.128-.043a3.427 3.427 0 0 0 1.44-.889 41.746 41.746 0 0 1-.33 4.642 12.036 12.036 0 0 0-.256 2.133 18.333 18.333 0 0 0 7.336-.341s-.171-3.583-.341-4.692a28.26 28.26 0 0 1-.175-1.4c.567.118 1.2.206 1.767.277a47.3 47.3 0 0 0 .54 4.79 16.144 16.144 0 0 0 2.621 4.958c-.151.931-.287 1.758-.318 2.293a73.327 73.327 0 0 0 1.024 10.919c.06.207.121.445.186.703z" transform="translate(-576.314 -249.415)" style="fill:#da5955"/>
            <path data-name="Path 35633" d="M633.851 266.761s-3.071-.171-4.521 1.109-.512 3.668-.853 4.863-2.133 7.677-2.815 8.787a33.243 33.243 0 0 0-2.218 5.374 37.552 37.552 0 0 0-1.536 9.3c.085 1.535 1.536 3.839 1.706 3.242s-.171-2.133 0-2.815a2.906 2.906 0 0 1 .682-1.195l.427 1.792s.512.682.512-.171a25.477 25.477 0 0 0 0-2.559 6.61 6.61 0 0 0-.768-2.133 41.083 41.083 0 0 1 2.3-5.033 30.974 30.974 0 0 0 2.218-4.863c.426-1.109 1.791-5.118 2.218-5.971s1.109-2.3 1.109-2.3" transform="translate(-620.317 -250.745)" style="fill:#f6ba99"/>
            <path data-name="Path 35634" d="M553.577 251.532a4.32 4.32 0 0 1 3.327-.171c1.706.682 1.621.682 3.071 1.279s6.569 1.962 6.569 1.962-1.621-6.568-1.706-7.422-3.44-3.185-3.7-3.526.385-1.326.385-1.326l3.745-1.039a45.551 45.551 0 0 1 2.38 5.806c.256 1.365 2.474 6.4 2.73 7.848s1.024 3.753.341 4.18-4.947-.682-7.592-1.365-5.289-1.109-5.289-1.109l-1.706 3.327" transform="translate(-530.232 -235.43)" style="fill:#f6ba99"/>
            <path data-name="Path 35635" d="m585.229 235.274.8-.13.128.578a9.8 9.8 0 0 1 1.641 7.415l.148.669-.8.13c-.851.188-1.97-1.6-2.5-3.99s-.268-4.483.583-4.672z" transform="translate(-559.509 -231.734)" style="fill:#706f8e"/>
            <path data-name="Path 35636" d="M582.629 239.8c.529 2.392 1.648 4.179 2.5 3.991s1.112-2.28.583-4.672-1.648-4.179-2.5-3.99-1.112 2.271-.583 4.671z" transform="translate(-556.687 -231.713)" style="fill:#393762"/>
            <g data-name="Group 51479">
                <path data-name="Path 35637" d="M560.587 242.009a.512.512 0 0 0 .12-.014l9.926-2.294a.529.529 0 0 0-.238-1.031l-9.926 2.294a.529.529 0 0 0 .119 1.045z" transform="translate(-532.859 -233.846)" style="fill:#393762"/>
            </g>
            <path data-name="Path 35638" d="m571.576 239.064.21 1.89-4.18.512-.276-1.448a.367.367 0 0 1 .275-.425l3.521-.845a.367.367 0 0 1 .45.316z" transform="translate(-536.499 -233.895)" style="fill:#f7c3a6"/>
            <path data-name="Path 35639" d="M573.945 247.351c.063.189-1.509-.042-2.33-.175a1.1 1.1 0 0 1-.77-.526c-.281-.47-.647-1.188-.482-1.517.256-.512 2.559-1.024 2.474-.512s-.768.682-.768.682a11.1 11.1 0 0 1 1.962.512 1 1 0 0 1 .512.853" transform="translate(-540.448 -237.306)" style="fill:#f6ba99"/>
            <path data-name="Path 35640" d="m557.062 227.634.853-.138.135.613a10.4 10.4 0 0 1 1.741 7.87l.157.709-.853.139c-.9.2-2.09-1.7-2.652-4.234s-.284-4.759.619-4.959z" transform="translate(-520.263 -227.134)" style="fill:#706f8e"/>
            <ellipse data-name="Ellipse 1663" cx="4.707" cy="1.675" rx="4.707" ry="1.675" transform="scale(-1) rotate(77.52 -12.855 -28.665)" style="fill:#393762"/>
            <path data-name="Path 35641" d="M557.971 237.761c.108.487.336.851.509.813s.226-.465.119-.952-.336-.851-.509-.813-.227.465-.119.952z" transform="translate(-519.617 -232.734)" style="fill:#706f8e"/>
            <path data-name="Path 35642" d="M575.1 429.593c-.512.768-7.763.256-8.445-.341-.628-.55-.069-1.8.025-2.8a7.913 7.913 0 0 0 2.534.483l.1-.42.525-.84c.525-.84 1.417.843 1.417.843.091.26 4.356 2.307 3.844 3.075z" transform="translate(-539.471 -346.185)" style="fill:#da5955"/>
            <path data-name="Path 35643" d="M633.575 426.671c.21.525.315.84.315.84s1.4-.267 2.34-.535c.045.91.029 2.529-.642 2.712-.938.256-5.716 1.024-6.654.6s3.924-3.753 3.924-3.753.507-.389.717.136z" transform="translate(-625.465 -346.758)" style="fill:#da5955"/>
        </g>
    </g>
</svg>
