<svg xmlns="http://www.w3.org/2000/svg" width="260.373" height="263.902" viewBox="0 0 260.373 263.902">
    <g data-name="Group 48554">
        <g data-name="Plants">
            <path data-name="Path 34476" d="M482.58 354.214a3.181 3.181 0 0 1 1.664-2.968 5.894 5.894 0 0 1 3.36-.855 4.244 4.244 0 0 1-1.854 3.023 3.745 3.745 0 0 1-3.17.8z" transform="translate(-227.258 -148.753)" style="fill:#ff7c45"/>
            <path data-name="Path 34477" d="M479.984 363.046a3.193 3.193 0 0 1 2.84-1.882 5.907 5.907 0 0 1 3.383.769 4.259 4.259 0 0 1-3.034 1.845 3.749 3.749 0 0 1-3.189-.732z" transform="translate(-226.07 -153.714)" style="fill:#ff7c45"/>
            <path data-name="Path 34478" d="M472.933 359.537a3.188 3.188 0 0 1-1.37-3.117 5.848 5.848 0 0 1 1.174-3.11 4.811 4.811 0 0 1 1.567 3.23 3.346 3.346 0 0 1-1.371 2.997z" transform="translate(-222.192 -150.112)" style="fill:#ff7c45"/>
            <path data-name="Path 34479" d="M466.571 373.309a12.994 12.994 0 0 1 .63-4.428 24.983 24.983 0 0 1 1.441-3.907 32.551 32.551 0 0 1 4.656-7.3 17.45 17.45 0 0 1 4.1-3.8c.034-.021.1.05.072.077a25.9 25.9 0 0 0-3.457 3.705 30.522 30.522 0 0 0-2.653 3.677 31.293 31.293 0 0 0-3.154 7.019 43.711 43.711 0 0 0-1.07 4.977.281.281 0 0 1-.565-.02z" transform="translate(-219.901 -150.37)" style="fill:#37474f"/>
            <path data-name="Path 34480" d="M473.914 363.58a10.032 10.032 0 0 1-.442-2.21 5.693 5.693 0 0 1 .136-2.145c.029-.1.084.046.084.11a16.358 16.358 0 0 0 .137 1.921 7.283 7.283 0 0 0 .561 1.963.452.452 0 0 1-.113.507.239.239 0 0 1-.363-.146z" transform="translate(-223.062 -152.813)" style="fill:#37474f"/>
            <path data-name="Path 34481" d="M474.65 365.232a8.256 8.256 0 0 1 2.771-1.478 9.334 9.334 0 0 1 1.387-.394 5.7 5.7 0 0 1 1.7-.108c.022 0 .145.072.1.078a15.174 15.174 0 0 0-1.64.322 8.652 8.652 0 0 0-1.443.484 13.589 13.589 0 0 0-2.659 1.454c-.166.12-.353-.238-.216-.358z" transform="translate(-223.6 -154.662)" style="fill:#37474f"/>
            <path data-name="Path 34482" d="M474.071 372.111a3.186 3.186 0 0 1 2.383-2.432 5.9 5.9 0 0 1 3.468.048 4.245 4.245 0 0 1-2.58 2.435 3.751 3.751 0 0 1-3.271-.051z" transform="translate(-223.356 -157.525)" style="fill:#ff7c45"/>
            <path data-name="Path 34483" d="M469.353 375.021a8.234 8.234 0 0 1 2.4-2.023 9.324 9.324 0 0 1 1.273-.674 5.689 5.689 0 0 1 1.642-.46c.023 0 .157.041.117.055a15.191 15.191 0 0 0-1.536.657 8.681 8.681 0 0 0-1.309.774 13.609 13.609 0 0 0-2.3 1.975c-.14.154-.397-.158-.287-.304z" transform="translate(-221.177 -158.63)" style="fill:#37474f"/>
        </g>
        <g data-name="Plants">
            <path data-name="Path 34484" d="M15.638 351.354a3.182 3.182 0 0 0-1.664-2.968 5.9 5.9 0 0 0-3.36-.855 4.244 4.244 0 0 0 1.854 3.023 3.745 3.745 0 0 0 3.17.8z" transform="translate(-10.587 -147.44)" style="fill:#ff7c45"/>
            <path data-name="Path 34485" d="M17.244 360.186A3.193 3.193 0 0 0 14.4 358.3a5.9 5.9 0 0 0-3.382.769 4.256 4.256 0 0 0 3.034 1.844 3.748 3.748 0 0 0 3.192-.727z" transform="translate(-10.785 -152.401)" style="fill:#ff7c45"/>
            <path data-name="Path 34486" d="M27.218 356.677a3.188 3.188 0 0 0 1.37-3.117 5.847 5.847 0 0 0-1.175-3.11 4.814 4.814 0 0 0-1.567 3.23 3.344 3.344 0 0 0 1.372 2.997z" transform="translate(-17.586 -148.799)" style="fill:#ff7c45"/>
            <path data-name="Path 34487" d="M26.667 370.449a12.98 12.98 0 0 0-.629-4.428 25.039 25.039 0 0 0-1.441-3.907 32.541 32.541 0 0 0-4.656-7.3 17.46 17.46 0 0 0-4.1-3.8c-.035-.021-.1.05-.072.077a25.9 25.9 0 0 1 3.461 3.709 30.486 30.486 0 0 1 2.653 3.677 31.294 31.294 0 0 1 3.154 7.019 43.57 43.57 0 0 1 1.071 4.977.28.28 0 0 0 .559-.024z" transform="translate(-12.964 -149.057)" style="fill:#37474f"/>
            <path data-name="Path 34488" d="M27.755 360.72a10 10 0 0 0 .441-2.21 5.683 5.683 0 0 0-.136-2.145c-.029-.1-.084.046-.084.11a16.456 16.456 0 0 1-.137 1.921 7.248 7.248 0 0 1-.561 1.964.452.452 0 0 0 .113.507.239.239 0 0 0 .364-.147z" transform="translate(-18.234 -151.5)" style="fill:#37474f"/>
            <path data-name="Path 34489" d="M22.752 362.372a8.252 8.252 0 0 0-2.77-1.478 9.333 9.333 0 0 0-1.387-.394 5.7 5.7 0 0 0-1.7-.108c-.022 0-.145.073-.1.077a15.327 15.327 0 0 1 1.64.323 8.679 8.679 0 0 1 1.443.484 13.6 13.6 0 0 1 2.659 1.454c.168.12.353-.238.215-.358z" transform="translate(-13.43 -153.349)" style="fill:#37474f"/>
            <path data-name="Path 34490" d="M23.467 369.25a3.188 3.188 0 0 0-2.383-2.431 5.9 5.9 0 0 0-3.468.048A4.247 4.247 0 0 0 20.2 369.3a3.749 3.749 0 0 0 3.267-.05z" transform="translate(-13.809 -156.212)" style="fill:#ff7c45"/>
            <path data-name="Path 34491" d="M28.52 372.161a8.235 8.235 0 0 0-2.4-2.023 9.358 9.358 0 0 0-1.273-.674A5.69 5.69 0 0 0 23.2 369c-.022 0-.157.041-.116.055a15.129 15.129 0 0 1 1.536.657 8.691 8.691 0 0 1 1.31.774 13.6 13.6 0 0 1 2.3 1.975c.144.157.399-.154.29-.3z" transform="translate(-16.322 -157.317)" style="fill:#37474f"/>
        </g>
        <g data-name="Plants">
            <path data-name="Path 34492" d="M36.578 332.108a3.454 3.454 0 0 1 .005-3.695 6.4 6.4 0 0 1 2.733-2.588c.211.045.682 1.908-.156 3.847a4.062 4.062 0 0 1-2.582 2.436z" transform="translate(-22.275 -137.494)" style="fill:#ff7c45"/>
            <path data-name="Path 34493" d="M38.338 341.885a3.463 3.463 0 0 1 1.7-3.287 6.409 6.409 0 0 1 3.615-1.06c.167.136-.267 2.009-1.9 3.354a4.074 4.074 0 0 1-3.415.993z" transform="translate(-23.318 -142.855)" style="fill:#ff7c45"/>
            <path data-name="Path 34494" d="M29.848 343.932A3.467 3.467 0 0 1 26.9 341.7a6.353 6.353 0 0 1-.535-3.571 5.233 5.233 0 0 1 3.2 2.235 3.628 3.628 0 0 1 .283 3.568z" transform="translate(-17.789 -143.136)" style="fill:#ff7c45"/>
            <path data-name="Path 34495" d="M36.819 356.029a14.119 14.119 0 0 1-1.75-4.532 27.157 27.157 0 0 1-.7-4.466 35.329 35.329 0 0 1 .546-9.385 18.936 18.936 0 0 1 1.87-5.77c.022-.037.124-.007.109.035a28.1 28.1 0 0 0-1.314 5.342 33.063 33.063 0 0 0-.566 4.891 33.954 33.954 0 0 0 .73 8.324 47.437 47.437 0 0 0 1.623 5.285.3.3 0 0 1-.548.276z" transform="translate(-21.457 -140.265)" style="fill:#37474f"/>
            <path data-name="Path 34496" d="M32.183 347.708a10.935 10.935 0 0 1-1.59-1.862 6.192 6.192 0 0 1-1.008-2.106c-.023-.107.1 0 .138.059a17.777 17.777 0 0 0 1.148 1.75 7.923 7.923 0 0 0 1.573 1.565.49.49 0 0 1 .162.54.26.26 0 0 1-.423.054z" transform="translate(-19.307 -145.698)" style="fill:#37474f"/>
            <path data-name="Path 34497" d="M34.54 346.345a8.945 8.945 0 0 1 1.844-2.867 10.177 10.177 0 0 1 1.106-1.107 6.191 6.191 0 0 1 1.557-1c.023-.006.176-.008.138.019a16.4 16.4 0 0 0-1.384 1.173 9.414 9.414 0 0 0-1.111 1.222 14.765 14.765 0 0 0-1.752 2.785c-.1.203-.465-.039-.398-.225z" transform="translate(-21.579 -144.628)" style="fill:#37474f"/>
            <path data-name="Path 34498" d="M37.761 353.387a3.456 3.456 0 0 1 .971-3.566 6.405 6.405 0 0 1 3.314-1.789c.192.1.159 2.019-1.156 3.674a4.067 4.067 0 0 1-3.129 1.681z" transform="translate(-22.99 -147.685)" style="fill:#ff7c45"/>
            <path data-name="Path 34499" d="M35.209 358.642a8.938 8.938 0 0 1 1.2-3.187 10.117 10.117 0 0 1 .85-1.313 6.166 6.166 0 0 1 1.313-1.3c.022-.012.17-.045.14-.01a16.328 16.328 0 0 0-1.108 1.435 9.33 9.33 0 0 0-.831 1.426 14.712 14.712 0 0 0-1.131 3.088c-.052.219-.46.058-.433-.139z" transform="translate(-21.89 -149.883)" style="fill:#37474f"/>
        </g>
        <g data-name="Plants">
            <path data-name="Path 34500" d="M462.884 334.968a3.455 3.455 0 0 0-.005-3.695 6.4 6.4 0 0 0-2.733-2.588c-.212.045-.682 1.908.156 3.847a4.062 4.062 0 0 0 2.582 2.436z" transform="translate(-216.814 -138.807)" style="fill:#ff7c45"/>
            <path data-name="Path 34501" d="M459.622 344.745a3.462 3.462 0 0 0-1.7-3.287 6.41 6.41 0 0 0-3.615-1.06c-.167.136.267 2.008 1.9 3.353a4.07 4.07 0 0 0 3.415.994z" transform="translate(-214.269 -144.168)" style="fill:#ff7c45"/>
            <path data-name="Path 34502" d="M469.336 346.792a3.467 3.467 0 0 0 2.951-2.231 6.35 6.35 0 0 0 .534-3.571 5.234 5.234 0 0 0-3.2 2.235 3.628 3.628 0 0 0-.285 3.567z" transform="translate(-221.023 -144.449)" style="fill:#ff7c45"/>
            <path data-name="Path 34503" d="M463.044 358.889a14.119 14.119 0 0 0 1.75-4.531 27.177 27.177 0 0 0 .7-4.466 35.307 35.307 0 0 0-.546-9.385 18.922 18.922 0 0 0-1.87-5.77c-.021-.037-.123-.007-.109.035a28.157 28.157 0 0 1 1.314 5.342 33.129 33.129 0 0 1 .566 4.891 33.979 33.979 0 0 1-.73 8.324 47.4 47.4 0 0 1-1.623 5.285.3.3 0 0 0 .548.275z" transform="translate(-218.034 -141.578)" style="fill:#37474f"/>
            <path data-name="Path 34504" d="M467.736 350.568a10.935 10.935 0 0 0 1.59-1.862 6.176 6.176 0 0 0 1.008-2.106c.023-.107-.1 0-.138.059a17.876 17.876 0 0 1-1.148 1.75 7.937 7.937 0 0 1-1.573 1.565.491.491 0 0 0-.162.54.261.261 0 0 0 .423.054z" transform="translate(-220.239 -147.011)" style="fill:#37474f"/>
            <path data-name="Path 34505" d="M464.016 349.2a8.936 8.936 0 0 0-1.844-2.868 10.126 10.126 0 0 0-1.106-1.107 6.189 6.189 0 0 0-1.557-1c-.024-.007-.176-.008-.138.019a16.418 16.418 0 0 1 1.384 1.173 9.386 9.386 0 0 1 1.112 1.222 14.794 14.794 0 0 1 1.752 2.785c.099.209.464-.033.397-.224z" transform="translate(-216.604 -145.94)" style="fill:#37474f"/>
            <path data-name="Path 34506" d="M460.907 356.248a3.458 3.458 0 0 0-.972-3.566 6.4 6.4 0 0 0-3.314-1.789c-.193.1-.16 2.019 1.156 3.674a4.07 4.07 0 0 0 3.13 1.681z" transform="translate(-215.306 -148.998)" style="fill:#ff7c45"/>
            <path data-name="Path 34507" d="M464.321 361.5a8.925 8.925 0 0 0-1.2-3.187 10.07 10.07 0 0 0-.85-1.312 6.157 6.157 0 0 0-1.313-1.305c-.022-.012-.171-.044-.14-.01a16.342 16.342 0 0 1 1.108 1.435 9.384 9.384 0 0 1 .831 1.426 14.746 14.746 0 0 1 1.131 3.088c.052.225.459.065.433-.135z" transform="translate(-217.268 -151.197)" style="fill:#37474f"/>
        </g>
        <ellipse cx="36.329" cy="20.974" rx="36.329" ry="20.974" transform="translate(176.277 201.631)" style="opacity:.3;fill:#e0e0e0"/>
        <g data-name="Character 3">
            <path data-name="Path 34508" d="M404.795 309.741c-.524-1.478-1.312-7.474-1.909-9.8a19.094 19.094 0 0 1-.523-4.67c.1-7.246.716-17.095.83-22.7a38.462 38.462 0 0 0-.64-8.042c-.4-2.164-.912-4.032-1.195-5.317-.013-4.567-.138-16.837-.186-26.2a95.618 95.618 0 0 0-3.312-24.062l-31.67 1.474c-.082 2.034-2.086 15.47-2.463 22.533-.589 11.038-.913 22.14-.535 28.089.341 5.355 1.019 10.689 1.556 16.027q.368 3.647.684 7.3a33.814 33.814 0 0 1 .213 6.857 11.512 11.512 0 0 1-2.391 5.829A12.921 12.921 0 0 1 361 299.3c-2.86 2.205-6.537 3.161-9.364 5.41a2.324 2.324 0 0 0-.72.809 1.8 1.8 0 0 0-.125.886 3.819 3.819 0 0 0 2.075 2.909 7.84 7.84 0 0 0 3.6.791 17.105 17.105 0 0 0 9.734-2.826c1.08-.716 2.073-1.553 3.121-2.315.471-.342.98-.637 1.444-.987a4.21 4.21 0 0 1 1.231-.541 30.81 30.81 0 0 0 3.028-1.324 6.777 6.777 0 0 0 1.4-.82 3.447 3.447 0 0 0 1.171-1.926 5.391 5.391 0 0 0 .08-1.356 8.993 8.993 0 0 0-.227-1.725c-.226-.939-.642-1.815-.939-2.732-.271-.835-.406-1.681-.609-2.53 1.1-6.132 2.293-13.093 2.88-17.89a39.833 39.833 0 0 0-.013-10.348l2.586-21.639c1.491 7.581 5.556 24.2 5.556 24.2 1.19 5.865 4.606 19.9 6.2 29.566.1 2.471.909 5.971.94 11.673.011 2.16.011 5.356-.031 6.695a22.543 22.543 0 0 0 .377 6.566c.63 2.963 3.966 1.983 4.527 1.1 0 0 3.969-1.553 4.94-3.749 1.19-2.688 1.457-5.979.933-7.456z" transform="translate(-166.758 -83.841)" style="fill:#ffa8a7"/>
            <path data-name="Path 34509" d="M373.777 209.738c3.8 4.5 17.64 5.358 24.438 4.549 7.392-.879 11.323-4.092 11.323-4.092s.524 3.345 1.4 8.3c.517 2.915.441 6.483.59 13.9.071 3.533.369 21.213.369 21.213-3.354 3.572-14.152 4.178-17.858 2.089l-2.592-12.134-1.745 12.113s-2.014 1.817-9.954.848a14.384 14.384 0 0 1-7.6-3.106s.467-33.107 1.629-43.68z" transform="translate(-176.567 -84.204)" style="fill:#37474f"/>
            <path data-name="Path 34510" d="M382.3 233.281c2.487 5.476 11.048 6.776 11.048 6.776l2.765 14.314-1.745 12.113L395 252.1l-3.419-9.628s-8.575-2.338-9.281-9.191z" transform="translate(-181.225 -95.011)" style="fill:#263238"/>
            <g data-name="Group 48451">
                <path data-name="Path 34511" d="M350.143 385.126a2.378 2.378 0 0 0 .678 2.506 12.454 12.454 0 0 0 8.68 1.24c4.217-.786 6.438-2.153 8.051-3.582s3.875-3.441 5.771-3.959a12.171 12.171 0 0 0 4.189-1.9c.538-.548.309-2.813.309-2.813z" transform="translate(-166.407 -160.81)" style="fill:#263238"/>
                <path data-name="Path 34512" d="M375.117 360.669a.676.676 0 0 1 .678.489c.172.617.433 2.427.782 3.435a17.051 17.051 0 0 1 .781 5.488c-.157 1.178-3.015 2.177-4.832 2.954a24.077 24.077 0 0 0-5.8 3.916 17.887 17.887 0 0 1-8.764 3.676c-3.279.192-7.033-.548-7.972-1.9-1.161-1.671-2.056-3.642 2.665-6.043.894-.454 4.008-2.435 5.067-3.148 2.865-1.93 4.856-3.659 6.024-6.818a1.719 1.719 0 0 1 .637-.984 1.667 1.667 0 0 1 .939-.141 34.288 34.288 0 0 1 4.832.53c.671.245 1.618.519 1.655 1.292a2.42 2.42 0 0 1-.131.8c-.048.162-.08.374.076.458s.327-.034.447-.147a11.878 11.878 0 0 0 1.214-1.54 4.59 4.59 0 0 1 .722-.775 8.422 8.422 0 0 0 .8-.553c.283-.293.19-.626.18-.989z" transform="translate(-165.973 -153.49)" style="fill:#455a64"/>
                <path data-name="Path 34513" d="M366.732 386.7c.8-.7 1.664-1.386 2.53-2s-5.5 3.588-7.908 2.281a1.831 1.831 0 0 1-.906-2.4c.012-.368-5.41-2.6-6.866-2.664-.389.232-.716.42-.921.525-4.722 2.4-3.826 4.371-2.665 6.042.939 1.35 3.684 2.272 7.919 1.995a18.37 18.37 0 0 0 8.817-3.779z" transform="translate(-165.972 -163.244)" style="fill:#37474f"/>
                <path data-name="Path 34514" d="M369.169 373.736c-2.948 1.316-1.624 1.753-.771 1.809s5.758-3.024 8.711-5.5c3.08-2.58 4.948-5.3 6.093-6.25.427-.353.883-.783 1.287-1.184-.12-.61-.222-1.166-.3-1.456a.676.676 0 0 0-.678-.489c-.076.513-.089.743-.366 1.035a5.5 5.5 0 0 1-.608.506 4.591 4.591 0 0 0-.722.775 11.886 11.886 0 0 1-1.214 1.54 39.226 39.226 0 0 1-11.432 9.214z" transform="translate(-174.364 -153.49)" style="fill:#37474f"/>
                <g data-name="Group 48450">
                    <g data-name="Group 48445">
                        <path data-name="Path 34515" d="M363.383 384.772a.312.312 0 0 0 .186-.075.263.263 0 0 0 .016-.392c-.917-.91-5.11-2.938-7.318-2.567a.282.282 0 0 0-.245.322.288.288 0 0 0 .345.224c2.063-.342 6.052 1.68 6.778 2.4a.307.307 0 0 0 .238.088z" transform="translate(-169.162 -163.142)" style="fill:#263238"/>
                    </g>
                    <g data-name="Group 48446">
                        <path data-name="Path 34516" d="M368.073 381.68a.312.312 0 0 0 .185-.075.263.263 0 0 0 .016-.392c-.916-.909-5.108-2.935-7.318-2.566a.283.283 0 0 0-.245.322.293.293 0 0 0 .346.224c2.063-.34 6.051 1.679 6.778 2.4a.307.307 0 0 0 .238.087z" transform="translate(-171.315 -161.723)" style="fill:#263238"/>
                    </g>
                    <g data-name="Group 48447">
                        <path data-name="Path 34517" d="M372.773 378.733a.316.316 0 0 0 .186-.075.264.264 0 0 0 .016-.392c-.917-.91-5.11-2.939-7.318-2.566a.282.282 0 0 0-.245.322.292.292 0 0 0 .346.224c2.063-.342 6.051 1.679 6.777 2.4a.31.31 0 0 0 .238.087z" transform="translate(-173.473 -160.37)" style="fill:#263238"/>
                    </g>
                    <g data-name="Group 48448">
                        <path data-name="Path 34518" d="M377.091 375.437a.306.306 0 0 0 .185-.075.262.262 0 0 0 .017-.392c-.916-.91-5.118-2.937-7.318-2.566a.283.283 0 0 0-.245.322.292.292 0 0 0 .345.224c2.061-.341 6.051 1.679 6.778 2.4a.307.307 0 0 0 .238.087z" transform="translate(-175.455 -158.857)" style="fill:#263238"/>
                    </g>
                    <g data-name="Group 48449">
                        <path data-name="Path 34519" d="M380.887 372.147a.309.309 0 0 0 .182-.072.263.263 0 0 0 .023-.391c-1.263-1.293-5.621-2.931-7.829-2.561a.283.283 0 0 0-.245.322.3.3 0 0 0 .345.224c1.988-.332 6.162 1.243 7.283 2.389a.306.306 0 0 0 .241.089z" transform="translate(-176.964 -157.347)" style="fill:#263238"/>
                    </g>
                </g>
            </g>
            <g data-name="Group 48458">
                <path data-name="Path 34520" d="M428.165 400.325c.129 2.754.585 4.562 1.677 6.126s3.2 1.965 5.361 1.382 4.934-1.992 5.6-4.408a13.316 13.316 0 0 0 .135-6.582z" transform="translate(-202.282 -170.097)" style="fill:#263238"/>
                <path data-name="Path 34521" d="M437.882 365.209c.884.016.264 3.858.7 7.548.467 3.955 1.8 5.533 2.221 8.774.484 3.7.226 5.381-1.318 7.713s-6.894 4.814-9.444 1.716c-2.079-2.526-2.109-5.442-1.84-9.178a82.855 82.855 0 0 0 .386-9.493c-.116-2.785-.759-5.3.016-5.65.051.407.1.924.153 1.324.042.307.39 2.092.6 1.8s.051-.691.031-1.053a1.186 1.186 0 0 1 .26-.914 4.122 4.122 0 0 1 1.466-.613c.874-.195 2.426-.4 3.313-.519.441-.057.884-.1 1.326-.116a3.887 3.887 0 0 1 1.119.083.686.686 0 0 1 .472.354 1.05 1.05 0 0 1 .038.424 2.621 2.621 0 0 0 .1.76c.03.108.114.239.242.206a.235.235 0 0 0 .149-.233l.01-2.933z" transform="translate(-202.245 -155.575)" style="fill:#455a64"/>
                <path data-name="Path 34522" d="M440.624 393.44c.075.534.527 4.071-.6 4.769-1.218.756-1.823-2.012-1.823-2.012a12.455 12.455 0 0 0-6.952 1.167c.2.567-.473 2.506-1.593 2.16s-1.473-4.408-1.478-4.461c-.242 3.58-.157 6.4 1.862 8.856 2.55 3.1 7.9.616 9.444-1.716s1.8-4.01 1.318-7.713a13.175 13.175 0 0 0-.178-1.05z" transform="translate(-202.245 -168.535)" style="fill:#37474f"/>
                <path data-name="Path 34523" d="M445.986 383.494c-.009 1.348 1.527.815 1.631-1.093s-1-6.366-.924-9.643c.057-4.5.184-7.533-.7-7.548l-.045 1.919c.018.34.034.729.026 1.019-.033 2.75-.368 8.074-.146 10.575a38.148 38.148 0 0 1 .158 4.771z" transform="translate(-210.356 -155.575)" style="fill:#37474f"/>
                <path data-name="Path 34524" d="M431.761 385.56a37.591 37.591 0 0 1-.748-4.689c-.256-2.477-1.4-7.483-1.946-10.17l-.435-2.842c-.63.2-.522 2.4-.313 3.516s.475 2.321.722 3.922c.7 3.17.457 7.841.92 9.67s2.064 1.904 1.8.593z" transform="translate(-202.278 -156.792)" style="fill:#37474f"/>
                <g data-name="Group 48457">
                    <g data-name="Group 48452">
                        <path data-name="Path 34525" d="M433.471 399.436a.4.4 0 0 0 .12-.037 12.173 12.173 0 0 1 6.831-.963.362.362 0 0 0 .405-.224.264.264 0 0 0-.226-.338 12.745 12.745 0 0 0-7.3 1.033.283.283 0 0 0-.146.393.319.319 0 0 0 .316.136z" transform="translate(-204.556 -170.493)" style="fill:#263238"/>
                    </g>
                    <g data-name="Group 48453">
                        <path data-name="Path 34526" d="M432.213 394.023a.376.376 0 0 0 .109-.032 15.084 15.084 0 0 1 7.648-1.075.362.362 0 0 0 .4-.235.267.267 0 0 0-.24-.331 15.612 15.612 0 0 0-8.08 1.138.288.288 0 0 0-.162.39.316.316 0 0 0 .325.145z" transform="translate(-203.978 -167.97)" style="fill:#263238"/>
                    </g>
                    <g data-name="Group 48454">
                        <path data-name="Path 34527" d="M439.633 387.692a.355.355 0 0 0 .282-.206.263.263 0 0 0-.2-.354 13.088 13.088 0 0 0-8.068 1.073.281.281 0 0 0-.146.393.343.343 0 0 0 .44.1c.037-.018 3.881-1.918 7.551-1.01a.362.362 0 0 0 .141.004z" transform="translate(-203.798 -165.516)" style="fill:#263238"/>
                    </g>
                    <g data-name="Group 48455">
                        <path data-name="Path 34528" d="M439.192 382.81a.355.355 0 0 0 .28-.2.259.259 0 0 0-.19-.356 11.8 11.8 0 0 0-8.229 1.059.277.277 0 0 0-.118.4.346.346 0 0 0 .449.072 11.235 11.235 0 0 1 7.665-.98.381.381 0 0 0 .143.005z" transform="translate(-203.534 -163.244)" style="fill:#263238"/>
                    </g>
                    <g data-name="Group 48456">
                        <path data-name="Path 34529" d="M438.75 377.4a.357.357 0 0 0 .278-.2.26.26 0 0 0-.185-.359c-4.063-1.128-8.119 1.047-8.289 1.142a.279.279 0 0 0-.128.4.338.338 0 0 0 .446.083c.039-.022 3.957-2.122 7.731-1.073a.369.369 0 0 0 .147.007z" transform="translate(-203.302 -160.769)" style="fill:#263238"/>
                    </g>
                </g>
            </g>
            <g data-name="Group 48479">
                <g data-name="Group 48477">
                    <g data-name="Group 48459">
                        <path data-name="Path 34530" d="M372.013 129.678c-3.889.451-6.011 1.129-7.76 4.864s-5.117 12.017-6.02 14.027a36.632 36.632 0 0 0-2.793 8.993c-.492 3.392 0 12.768 0 12.768l6.078 6.868 5.95-22.034 3.906-10.535z" transform="translate(-168.796 -47.451)" style="fill:#ffa8a7"/>
                        <path data-name="Path 34531" d="M377.49 127.973c-4.225.7-8.206.572-10.539 5.052-2.392 4.593-5.854 13.8-5.854 13.8s.848 2.291 4.654 4.086a11.742 11.742 0 0 0 6.657 1.245l4.085-10.663z" transform="translate(-171.493 -46.668)" style="fill:#37474f"/>
                    </g>
                    <g data-name="Group 48460">
                        <path data-name="Path 34532" d="M408.729 127.49s-7.742-1.274-9.529-1.587c-7.86-.9-17.239 1.169-17.239 1.169-3.3 1-6.836 4.6-8.731 11.422-1.385 4.983-.589 9.875.372 11.6-.021 2.912-.029 5.072.091 10.36s.06 7.422.022 11.79c8.351 8.607 30.519 7.954 36.31.223a88.144 88.144 0 0 1-.283-14.848c.631-6.688.762-7.083 1.547-13.96a32.353 32.353 0 0 0-2.56-16.169z" transform="translate(-176.722 -45.613)" style="fill:#455a64"/>
                        <path data-name="Path 34533" d="M403.833 171.364a10.047 10.047 0 0 1-5.794 1.094 14.341 14.341 0 0 1-4.995-1.532 13.181 13.181 0 0 0-1.532-.653c-1.286-.4-2.153.016-3.288.185a12.558 12.558 0 0 1-5.362-.428 3.753 3.753 0 0 1-2.3-1.51 9.6 9.6 0 0 0 6.71.983 5.277 5.277 0 0 0 1.757-.592 1.9 1.9 0 0 0 .8-1.292 16.036 16.036 0 0 0 .216-1.663c.115-1.439.609-3.617 1.213-2.964a.411.411 0 0 1 .086.253c.111 1.227-.35 3.464.2 4.91s2.179 2.115 3.914 2.613a17.216 17.216 0 0 0 5.618.721c1.963-.097 3.824-.822 2.757-.125z" transform="translate(-180.429 -62.689)" style="opacity:.5;fill:#37474f"/>
                    </g>
                    <g data-name="Group 48464">
                        <g data-name="Group 48463">
                            <g data-name="Group 48461">
                                <path data-name="Path 34534" d="M421.614 80.721a4.213 4.213 0 0 1 3.077 2.46c.61 1.16 1.042 3.273-.664 9.293a23.992 23.992 0 0 1-2.988 6.636 3.034 3.034 0 0 1-1.774 1.371l.141-4.635.189-3.229s-2.65-2.381-2.87-4.7a7.293 7.293 0 0 1 .914-4.674z" transform="translate(-197.011 -24.976)" style="fill:#37474f"/>
                                <path data-name="Path 34535" d="M408.068 75.8c-.451-2.609-3.814-5.739-10.323-6.121a12.435 12.435 0 0 0-11.3 5.582c-1.869 3.035.745 5.66.745 5.66l16.329-.724z" transform="translate(-182.821 -19.898)" style="fill:#37474f"/>
                                <path data-name="Path 34536" d="M409.8 97.139a2.61 2.61 0 0 1-3.569-.755l-.018 9.78c-4.733 6.142-17.689 3.788-12.517-.8l.029-2.357a15.011 15.011 0 0 1-2.123-.216 5.2 5.2 0 0 1-4.589-3.77 25.666 25.666 0 0 1-.645-4.526 16.981 16.981 0 0 1 .834-6.512c.439-1.181-.063-2.743.274-4.207a3.959 3.959 0 0 1 1.808-2.839c2.612-1.245 5.015.589 8.64 2 1.5.584 5.147.858 6.111.422-1.273 1.362-1.279 5.688.58 7.456a4.03 4.03 0 0 0 .93 1.2c.792.682 1.449-1.06 2.119-1.74a2.768 2.768 0 0 1 4.251.986 4.317 4.317 0 0 1-2.115 5.878z" transform="translate(-183.079 -24.884)" style="fill:#ffa8a7"/>
                                <path data-name="Path 34537" d="M399.979 116.892a20.034 20.034 0 0 0 7.064-1.011c1.684-.683 3.184-2.9 3.681-5.108-.007 1.779-.816 4.927-3.37 6.22a16.893 16.893 0 0 1-7.387 1.373z" transform="translate(-189.338 -38.772)" style="fill:#f28f8f"/>
                                <path data-name="Path 34538" d="M403.532 96.234c.659 1.3-.115 5.387-1.367 5.892s-2.667-.321-5.394-1.109a10.245 10.245 0 0 0-5.862-.3c-1.282.335-4.1 1.305-4.562.662-.133 2.23.5 7.556 3.94 8.666 2.441.789 7.65.954 10.72-.592s3.642-3.334 4.215-5.771a44.045 44.045 0 0 1 1.589-5.039z" transform="translate(-183.078 -32.098)" style="fill:#37474f"/>
                                <path data-name="Path 34539" d="M395.063 108.1c.025-.112.056-.223.089-.332a2.628 2.628 0 0 1 .592-1.089 2.344 2.344 0 0 1 1.2-.6 3.784 3.784 0 0 1 3.511.706 3.057 3.057 0 0 1 .95 2.339c-.026.544-.432.726-.94.867a1.659 1.659 0 0 1-1.671-.323.877.877 0 0 0-1.11-.123 5.442 5.442 0 0 1-.549.4 1.462 1.462 0 0 1-.823.035 2.026 2.026 0 0 1-.723-.2 1.246 1.246 0 0 1-.569-.918 2.158 2.158 0 0 1 .043-.762z" transform="translate(-187.058 -36.556)" style="fill:#ffa8a7"/>
                                <path data-name="Path 34540" d="m401.245 107.058-2.724.863a1.415 1.415 0 0 0 1.781.952 1.459 1.459 0 0 0 .943-1.815z" transform="translate(-188.674 -37.067)" style="fill:#b16668"/>
                                <path data-name="Path 34541" d="M402.069 107.917a1.607 1.607 0 0 1 .346-.03 1.45 1.45 0 0 1-1 1.367 1.391 1.391 0 0 1-.455.059 1.285 1.285 0 0 1 1.109-1.396z" transform="translate(-189.787 -37.447)" style="fill:#f28f8f"/>
                            </g>
                            <g data-name="Group 48462">
                                <path data-name="Path 34542" d="m406.028 89.912 2.4 1.008a1.336 1.336 0 0 0-.716-1.723 1.281 1.281 0 0 0-1.684.715z" transform="translate(-192.121 -28.821)" style="fill:#37474f"/>
                                <path data-name="Path 34543" d="m389.538 89.809 2.451-.936a1.274 1.274 0 0 0-1.664-.76 1.343 1.343 0 0 0-.787 1.696z" transform="translate(-184.515 -28.33)" style="fill:#37474f"/>
                                <path data-name="Path 34544" d="M407.118 94.727a1.065 1.065 0 1 1-1.022-1.086 1.053 1.053 0 0 1 1.022 1.086z" transform="translate(-191.644 -30.907)" style="fill:#263238"/>
                                <path data-name="Path 34545" d="M392.925 93.881A1.065 1.065 0 1 1 391.9 92.8a1.052 1.052 0 0 1 1.025 1.081z" transform="translate(-185.128 -30.519)" style="fill:#263238"/>
                                <path data-name="Path 34546" d="m397.944 91.009-.9 6.631-3.575-1.317a15.571 15.571 0 0 1 4.475-5.314z" transform="translate(-186.353 -29.699)" style="fill:#f28f8f"/>
                            </g>
                        </g>
                    </g>
                    <g data-name="Group 48467">
                        <g data-name="Group 48466">
                            <path data-name="Path 34547" d="M396.928 158.226a3.41 3.41 0 0 0-1.063 2.9 1.088 1.088 0 0 0 .6.9h.011l1.7.624 1.48-4.1-1.674-.615h-.005a1.085 1.085 0 0 0-1.049.291z" transform="translate(-187.439 -60.401)" style="fill:#ff7c45"/>
                            <path data-name="Path 34548" d="M401.691 159.975c-.168-.969-.917-1.244-1.672-.615a3.412 3.412 0 0 0-1.064 2.9l.609 3.51.392-.327a.725.725 0 0 0 .227-.617l-.283-1.626a1.3 1.3 0 0 0 .726-.327 3.407 3.407 0 0 0 1.065-2.898z" transform="translate(-188.857 -60.921)" style="fill:#ff7c45"/>
                            <path data-name="Path 34549" d="M401.691 159.975c-.168-.969-.917-1.244-1.672-.615a3.412 3.412 0 0 0-1.064 2.9l.609 3.51.392-.327a.725.725 0 0 0 .227-.617l-.283-1.626a1.3 1.3 0 0 0 .726-.327 3.407 3.407 0 0 0 1.065-2.898z" transform="translate(-188.857 -60.921)" style="opacity:.2"/>
                            <path data-name="Path 34550" d="m396.5 167.377 1.672.614-.608-3.51-1.672-.614z" transform="translate(-187.467 -63.145)" style="fill:#ff7c45"/>
                            <g data-name="Group 48465">
                                <path data-name="Path 34551" d="m396.387 164.662 1.139.419-.1-.6-1.139-.419z" transform="translate(-187.646 -63.236)" style="fill:#37474f"/>
                                <path data-name="Path 34552" d="m397.614 165.481-1.139-.419.152-.127.954.35z" transform="translate(-187.734 -63.636)" style="fill:#263238"/>
                                <path data-name="Path 34553" d="m208.893 101.299-.07-.4-.186-.068.1.6z"/>
                            </g>
                        </g>
                        <path data-name="Path 34554" d="M412.592 124.865v.778a7.862 7.862 0 0 1-.016 4.176 13.1 13.1 0 0 1-1.626 3.623 21.558 21.558 0 0 1-6.054 6.666 27.835 27.835 0 0 1-4.482 2.66c-.384.183-.074.682.267.519 5.707-2.719 10.978-7.444 12.614-13.762a5.238 5.238 0 0 0-.703-4.66z" transform="translate(-189.462 -45.241)" style="fill:#e0e0e0"/>
                        <path data-name="Path 34555" d="M398.7 143.2a22.626 22.626 0 0 1-1.111-3.2 41.289 41.289 0 0 1-.7-3.417 20.606 20.606 0 0 1-.108-6.82 9.786 9.786 0 0 1 1.347-3.906l.009-.691a13.427 13.427 0 0 0-1.2 1.993 13.048 13.048 0 0 0-.492 1.556 15.515 15.515 0 0 0-.435 3.411 29.857 29.857 0 0 0 .925 7.41 14.254 14.254 0 0 0 1.288 3.767c.137.226.613.216.477-.103z" transform="translate(-187.523 -45.379)" style="fill:#e0e0e0"/>
                    </g>
                    <g data-name="Group 48476">
                        <g data-name="Group 48472">
                            <path data-name="Path 34556" d="m344.935 171.491 26.1 6.546 9.635 28.881-.512.638-24.857-6.71-10.877-28.717z" transform="translate(-163.839 -66.645)" style="fill:#ff7c45"/>
                            <path data-name="Path 34557" d="m392.671 184.23 9.635 28.881.511-.638-9.635-28.881z" transform="translate(-185.988 -72.2)" style="opacity:.35"/>
                            <path data-name="Path 34558" d="m344.423 172.67 26.1 6.546 9.635 28.881-24.857-6.71z" transform="translate(-163.839 -67.186)" style="opacity:.25"/>
                            <g data-name="Group 48468" style="opacity:.1">
                                <path data-name="Path 34559" d="m188.755 110.862-.3-.97c-.165-.536 1.346-.378 3.375.353l4.69.958c2.029.73 3.93 1.241 4.094 1.777l.3.97z"/>
                            </g>
                            <g data-name="Group 48469">
                                <path data-name="Path 34560" d="M355.988 173.96c-.1-.335.48-.315 1.307-.176l1.5.36s-.723-1.382 2.809-.767c3.886.677 4.135 2.525 4.135 2.525a16.7 16.7 0 0 0 1.882.493c1.3.291 1.457.521 1.592.858l.243.611-13.3-3.329s-.064-.24-.168-.575z" transform="translate(-169.143 -67.438)" style="fill:#37474f"/>
                            </g>
                            <g data-name="Group 48470">
                                <path data-name="Path 34561" d="M358.405 176.858c1.243.427 1.762.643 2.017 1.469.291.943.371 1.34.371 1.34l6.952 2.012s-.492-1.384-.624-1.848.756-.546 1.968-.12l-.384-1.156-10.791-2.9z" transform="translate(-170.032 -68.558)" style="fill:#37474f"/>
                            </g>
                            <g data-name="Group 48471">
                                <path data-name="Path 34562" d="m358.625 181.606-.3-.97c-.164-.536 1.346-.378 3.375.352l4.69.958c2.028.731 3.929 1.241 4.094 1.778l.3.97z" transform="translate(-170.216 -70.697)" style="fill:#37474f"/>
                            </g>
                        </g>
                        <g data-name="Group 48473">
                            <path data-name="Path 34563" d="M445.988 171.183c3.428-1.775 5.97-3.648 6.237-5.436.534-3.577-1.445-13.535-3.678-22.3-1.077-4.225-1.071-8.492-3.843-11.2-2.586-2.529-5.051-2.422-7.285-2.74-4.93 6.858-1.522 18.751-1.522 18.751l3.487 12.865" transform="translate(-205.304 -47.372)" style="fill:#ffa8a7"/>
                        </g>
                        <g data-name="Group 48475">
                            <path data-name="Path 34564" d="M393.431 198.467a19.569 19.569 0 0 1-3.784.5c-.557 0-2.647-.958-4.35-1.388s-2.8.569-1.92 1.237a11.283 11.283 0 0 0 1.486 1.009c-.713.7-1.206 1.353.232 2.541a1.843 1.843 0 0 0 .617 2.074 18.085 18.085 0 0 0 4.808 2.968 22.127 22.127 0 0 0 6.219-.183 55.448 55.448 0 0 1 4.263-2.033c1.283-.54 3.6-1.737 5.089-2.223s12.949-3.741 18.613-7.445c2.094-1.511 5.009-4.913 3.057-7.225-3.167-2.429-8.346-3.929-12.1-1.435-3.728 2.475-10.674 7.04-12.616 7.919a14.216 14.216 0 0 1-5.315.837 34.425 34.425 0 0 0-5.123.366z" transform="translate(-181.578 -73.113)" style="fill:#ffa8a7"/>
                            <g data-name="Group 48474">
                                <path data-name="Path 34565" d="M386.389 211.912c.691.385 1.361.8 2.028 1.223.338.207.663.427 1 .642a.866.866 0 0 0 .459.2c.187.027.379.045.574.059 1.562.106 3.148.106 4.73.23-.79.079-1.581.122-2.374.146s-1.585.021-2.384-.03c-.2-.017-.4-.038-.6-.071a1.307 1.307 0 0 1-.338-.1 1.856 1.856 0 0 1-.271-.175c-.317-.229-.64-.451-.951-.687a42.21 42.21 0 0 1-1.873-1.437z" transform="translate(-183.104 -85.201)" style="fill:#f28f8f"/>
                                <path data-name="Path 34566" d="M386.817 216.609c.658.437 1.313.868 1.983 1.274.339.2.671.4 1.014.591.169.093.343.2.509.275a2.117 2.117 0 0 0 .522.115c.765.1 1.561.113 2.348.155s1.583.055 2.374.143a27.321 27.321 0 0 1-4.771.045 2.308 2.308 0 0 1-.629-.156 6.222 6.222 0 0 1-.525-.3 15.716 15.716 0 0 1-.993-.652 15.378 15.378 0 0 1-1.832-1.49z" transform="translate(-183.3 -87.357)" style="fill:#f28f8f"/>
                                <path data-name="Path 34567" d="M390.329 222.312c.538.21 1.064.44 1.6.627a8.234 8.234 0 0 0 1.636.386 11.291 11.291 0 0 0 1.694.032 10.24 10.24 0 0 1 1.734.1l-1.717.193a7.228 7.228 0 0 1-1.754.01 7.432 7.432 0 0 1-3.193-1.348z" transform="translate(-184.913 -89.975)" style="fill:#f28f8f"/>
                            </g>
                        </g>
                        <path data-name="Path 34568" d="M436.917 129.03c2.739.174 4.159.342 6.789 2.157s3.362 5.529 3.793 7.893 2.156 9.116 2.629 11.691c-2.026 4.01-7.5 4.854-13.061 4.221-1.25-4.474-2.975-11.016-3.147-14.73s.303-7.903 2.997-11.232z" transform="translate(-204.91 -47.153)" style="fill:#37474f"/>
                    </g>
                </g>
                <g data-name="Group 48478">
                    <path data-name="Path 34569" d="M354.281 202.78c-.786-1.036-.718-1.177-.312-1.72a3.394 3.394 0 0 1 2.721-1.424 7.114 7.114 0 0 1 2.384.214c.491.237.095 1.245-1.128 1.536-1.927.458-1.906.973-1.906.973a24.81 24.81 0 0 1 2.49-.472 18.412 18.412 0 0 1 2.845.371c.818.112 1 1.14-.379 1.518l1.5.209c1.049.146 1.415.685.6 1.333a1.557 1.557 0 0 1-.941.365s1.115-.02 1.144.342c.085 1.04-.6 1.324-2.84 2a6.406 6.406 0 0 0-1.41.586 5.554 5.554 0 0 1-1.365.7 1.736 1.736 0 0 1-1.254-.107 1.1 1.1 0 0 1-.561-1.264s-1.227.044-1.316-.7a3.761 3.761 0 0 1 .268-1.6 1.31 1.31 0 0 1-.7-1.221 2.109 2.109 0 0 1 .423-1.314z" transform="translate(-168.086 -79.566)" style="fill:#ffa8a7"/>
                    <path data-name="Path 34570" d="M362.957 207.183a7.041 7.041 0 0 0-1.36-.121 4.467 4.467 0 0 0-1.307.431 16.049 16.049 0 0 0-2.346 1.281 16.151 16.151 0 0 0 2.508-.928 7.139 7.139 0 0 1 1.191-.486c.405-.071.875-.086 1.314-.177z" transform="translate(-170.046 -82.973)" style="fill:#f28f8f"/>
                    <path data-name="Path 34571" d="M364.784 210.731a3.05 3.05 0 0 0-1.47-.018 7.914 7.914 0 0 0-1.391.456 13.915 13.915 0 0 0-2.534 1.384 28.407 28.407 0 0 0 2.69-1.028 7.767 7.767 0 0 1 2.705-.794z" transform="translate(-170.709 -84.614)" style="fill:#f28f8f"/>
                </g>
            </g>
        </g>
        <path d="M457.808 82.479A7.285 7.285 0 1 0 461.79 94.1c-1.57-1.2-5.7-4.542-5.7-4.542zm7.4 9.287a9.391 9.391 0 0 0-5.708-10.944l.237-.979 1.007.244a.254.254 0 0 0 .306-.187l.416-1.719a.253.253 0 0 0-.186-.306l-4.45-1.078a.252.252 0 0 0-.305.186l-.416 1.719a.253.253 0 0 0 .186.305l1.007.244-.237.979a9.344 9.344 0 0 0-5.141.927l-.333-.549.587-.356a.168.168 0 0 0 .056-.23l-.608-1a.168.168 0 0 0-.23-.056l-2.596 1.573a.167.167 0 0 0-.056.23l.608 1a.167.167 0 0 0 .23.056l.587-.356.336.554a9.382 9.382 0 1 0 14.71 9.74zm-11.074 5.856a8.3 8.3 0 1 1 10.019-6.112 8.307 8.307 0 0 1-10.015 6.112z" transform="translate(-210.794 -23.173)" style="fill:#e0e0e0"/>
        <path d="m37.168 81.423 4.008 12.854-.607-19.087-7.959 2.417-5.343-11.124L29.64 84.1zm-8.574 11.62-7.035-4.191 7.775 8.874 3.18-4.244 6.932 5.638-7.338-10.333z" transform="translate(-15.624 -18.44)" style="fill:#e0e0e0"/>
        <path data-name="Bolt" d="m387.1 39.295-4.4 7.894 9.866-8.675-5.142-4.381 3.153-7.313-8.251 8.6z" transform="translate(-181.242 -.233)" style="fill:#e0e0e0"/>
        <path d="m109.935 48.568 1.908-2.38c1.455-1.815 4.686-6.493 3.273-10.725a4.733 4.733 0 0 0-5.988-2.989c-1.837.613-3.324 3.727-2.631 5.826-.692-2.1-3.754-3.694-5.591-3.08a4.732 4.732 0 0 0-2.989 5.988c1.413 4.232 6.808 6.028 9.062 6.6z" transform="translate(-50.565 -2.716)" style="fill:#e0e0e0"/>
        <g transform="translate(117.392)">
            <circle data-name="Ellipse 1562" cx="13.293" cy="13.293" r="13.293" style="fill:#e0e0e0"/>
            <circle data-name="Ellipse 1563" cx="10.271" cy="10.271" r="10.271" transform="translate(3.022 3.022)" style="fill:#fff"/>
            <circle data-name="Ellipse 1564" cx="7.433" cy="7.433" r="7.433" transform="translate(5.859 5.859)" style="fill:#e0e0e0"/>
            <circle data-name="Ellipse 1565" cx="4.628" cy="4.628" r="4.628" transform="translate(8.665 8.665)" style="fill:#fff"/>
            <circle data-name="Ellipse 1566" cx="2.198" cy="2.198" r="2.198" transform="translate(11.094 11.094)" style="fill:#e0e0e0"/>
        </g>
        <g data-name="Speech Bubbles">
            <g data-name="Speech Bubble">
                <g data-name="Speech Bubble">
                    <path data-name="Path 34715" d="M338.855 54.4a13.41 13.41 0 0 1 5.717 8.043l.28 1.51a13.423 13.423 0 0 1-26.174 5.566l-.354-1.5A13.423 13.423 0 0 1 338.855 54.4z" transform="translate(-151.76 -11.902)" style="fill:#fff"/>
                    <path data-name="Path 34716" d="M318.345 56.771a14.572 14.572 0 0 0 22.951 17.8l4.432.928a.847.847 0 0 0 .86-1.324l-2.65-3.672a14.571 14.571 0 0 0-25.592-13.727zm19.54-3.331a13.411 13.411 0 0 1 5.717 8.043l.28 1.51a13.423 13.423 0 0 1-26.174 5.566l-.354-1.5a13.423 13.423 0 0 1 20.531-13.619z" transform="translate(-150.79 -10.938)" style="fill:#455a64"/>
                    <path data-name="Path 34717" d="M338.855 54.4a13.411 13.411 0 0 1 5.717 8.043l.28 1.51a13.423 13.423 0 0 1-26.174 5.566l-.354-1.5A13.423 13.423 0 0 1 338.855 54.4z" transform="translate(-151.76 -11.902)" style="opacity:.7;fill:#fff"/>
                </g>
                <g data-name="Group 48553">
                    <path data-name="Path 34718" d="M328.625 69.16a1.846 1.846 0 0 0-.734.128 1.319 1.319 0 0 0-.483.344 1.389 1.389 0 0 0-.277.5 3.237 3.237 0 0 0-.129.594 4 4 0 0 0-.032.486q-.006.311-.007.641c0 .221 0 .436.013.647s.017.376.026.493a2.479 2.479 0 0 0 .122.594 1.481 1.481 0 0 0 .283.5 1.3 1.3 0 0 0 .489.344 1.858 1.858 0 0 0 .728.128 2.381 2.381 0 0 0 .631-.081 1.394 1.394 0 0 0 .514-.256 1.221 1.221 0 0 0 .347-.459 1.653 1.653 0 0 0 .129-.688h-1.081a.329.329 0 0 1-.245-.108.359.359 0 0 1-.1-.257v-1.431a.358.358 0 0 1 .1-.256.327.327 0 0 1 .245-.108h3.115a.326.326 0 0 1 .244.108.359.359 0 0 1 .1.256v1.728a3.757 3.757 0 0 1-.309 1.552 3.393 3.393 0 0 1-.85 1.167 3.775 3.775 0 0 1-1.267.735 4.714 4.714 0 0 1-1.577.256 4.443 4.443 0 0 1-1.655-.29 3.762 3.762 0 0 1-1.242-.789 3.442 3.442 0 0 1-.792-1.167 4.227 4.227 0 0 1-.315-1.411q-.026-.553-.026-1.187t.026-1.214a3.927 3.927 0 0 1 .309-1.41 3.583 3.583 0 0 1 .791-1.167 3.688 3.688 0 0 1 1.243-.789 4.89 4.89 0 0 1 3.282-.014 4.2 4.2 0 0 1 1.223.7 3.4 3.4 0 0 1 .785.931 2.24 2.24 0 0 1 .309.966.243.243 0 0 1-.077.209.284.284 0 0 1-.206.088h-1.712a.385.385 0 0 1-.3-.121 11.224 11.224 0 0 1-.213-.243 1.89 1.89 0 0 0-.489-.446 1.738 1.738 0 0 0-.936-.203z" transform="translate(-154.737 -18.678)" style="fill:#ff7c45"/>
                    <path data-name="Path 34719" d="M348.317 74.622c.009.135.013.309.013.52s0 .385-.013.519a3.219 3.219 0 0 1-.283 1.214 3.12 3.12 0 0 1-.709.992 3.248 3.248 0 0 1-1.088.669 4.3 4.3 0 0 1-2.845 0 3.24 3.24 0 0 1-1.087-.669 3.119 3.119 0 0 1-.709-.992 3.219 3.219 0 0 1-.283-1.214q-.013-.2-.013-.519c0-.211 0-.385.013-.52a3.04 3.04 0 0 1 .271-1.214 3.092 3.092 0 0 1 .714-.992 3.436 3.436 0 0 1 1.094-.675 4.181 4.181 0 0 1 2.845 0 3.438 3.438 0 0 1 1.095.675 3.009 3.009 0 0 1 .708.992 3.293 3.293 0 0 1 .277 1.214zm-4.686.972a1.164 1.164 0 0 0 .354.8 1.334 1.334 0 0 0 1.661 0 1.163 1.163 0 0 0 .354-.8 4.064 4.064 0 0 0 0-.918 1.162 1.162 0 0 0-.354-.8 1.334 1.334 0 0 0-1.661 0 1.163 1.163 0 0 0-.354.8 4.069 4.069 0 0 0 0 .918z" transform="translate(-162.406 -20.74)" style="fill:#ff7c45"/>
                    <path data-name="Path 34720" d="M358.9 73.432a.359.359 0 0 1-.1.256.327.327 0 0 1-.245.108h-1.622a.326.326 0 0 1-.245-.108.358.358 0 0 1-.1-.256v-5.816a.359.359 0 0 1 .1-.257.328.328 0 0 1 .245-.108h1.622a.328.328 0 0 1 .245.108.36.36 0 0 1 .1.257zm0 2.9a.359.359 0 0 1-.1.257.326.326 0 0 1-.245.108h-1.622a.326.326 0 0 1-.245-.108.359.359 0 0 1-.1-.257V74.97a.358.358 0 0 1 .1-.256.326.326 0 0 1 .245-.108h1.622a.327.327 0 0 1 .245.108.359.359 0 0 1 .1.256z" transform="translate(-169.42 -18.793)" style="fill:#ff7c45"/>
                </g>
            </g>
        </g>
        <g data-name="Group 51452">
            <path data-name="Path 35501" d="M80.254 428.882c.3 2.579 2.194 4.687 4.23 6.3 8.987 7.11 21.358 7.616 32.815 7.812l42.585.728c4.884.083 9.772.167 14.649-.1 6.154-.338 12.606-1.371 17.422-5.218s7.222-11.29 3.752-16.383c-2.822-4.143-8.291-5.405-13.266-6.021-23.962-2.964-48.17 1.474-72.314 1.751-6.98.078-31.26-.703-29.873 11.131z" transform="translate(-54.117 -179.899)" style="opacity:.3;fill:#e0e0e0"/>
            <g data-name="Group 51451" transform="translate(14.522 44.391)">
                <path data-name="Path 35502" d="M113.426 258.5s-2.527 1.955-3.481 1.955-3.386.381-3.052 1.478 2.885.787 2.885.787l9.371-.107a12.873 12.873 0 0 0-.953-2.683c-.549-.965-4.77-1.43-4.77-1.43z" transform="translate(-80.045 -157.355)" style="fill:#e17865"/>
                <path data-name="Path 35503" d="M156.742 198.774A39.659 39.659 0 0 1 144 197.429a12.769 12.769 0 0 1-1.585-.8s.658-5.6.841-7.966a8.761 8.761 0 0 0 .4-2.049 122.993 122.993 0 0 0-2.489-16.029c-.32-1.4-.681-2.85-1.087-4.332.212 6.7-2.152 12.023-4.681 16.361a31.523 31.523 0 0 0-3.165 7.605 54.368 54.368 0 0 1-2.552 7.222c-2.638 6.14-6.581 13.351-6.581 13.351l-4.767-1.431s2.037-8.933 4.481-16.309a41.916 41.916 0 0 1 1.923-4.67 19.268 19.268 0 0 0 1.894-7.805c.132-6.609 2.541-14.421 4.292-19.1 1.333-15.067 8.395-15.067 12.3-15.737a17.979 17.979 0 0 1 2.718-1.064 31.477 31.477 0 0 1 3.279-.835c.137-.029.275-.052.418-.074.538-.1.864-.149.864-.149v.023h.006z" transform="translate(-84.952 -108.215)" style="fill:#e17865"/>
                <path data-name="Path 35504" d="M252.21 258.5s2.528 1.955 3.481 1.955 3.386.381 3.052 1.478-2.885.787-2.885.787l-9.371-.107a12.853 12.853 0 0 1 .954-2.683c.548-.965 4.769-1.43 4.769-1.43z" transform="translate(-139.77 -157.355)" style="fill:#e17865"/>
                <path data-name="Path 35505" d="m227.773 209.36-4.767 1.431s-3.943-7.21-6.581-13.351a54.371 54.371 0 0 1-2.552-7.222 31.523 31.523 0 0 0-3.165-7.605c-2.524-4.338-4.887-9.66-4.681-16.361a93.775 93.775 0 0 0-1.053 4.2 123.633 123.633 0 0 0-2.524 16.16 17.47 17.47 0 0 0 .853 3.634v.006a332.65 332.65 0 0 0 1.11 6.232 23.166 23.166 0 0 1-2.2.91 39.721 39.721 0 0 1-12.853 1.379l6.243-55.148v-.006l.109.017a.449.449 0 0 1 .08.011 33.148 33.148 0 0 1 4.527 1.076 19.053 19.053 0 0 1 2.558 1.019c3.914.67 10.97.67 12.3 15.737 1.757 4.675 4.166 12.487 4.292 19.1a19.268 19.268 0 0 0 1.894 7.805 41.913 41.913 0 0 1 1.923 4.67c2.449 7.373 4.487 16.306 4.487 16.306z" transform="translate(-115.335 -108.215)" style="fill:#e17865"/>
                <path data-name="Path 35506" d="M189.444 190.144a5.125 5.125 0 0 0-.2-1.753 14.033 14.033 0 0 1-.576-1.726c-.248-1.39.581-2.5 1.056-3.7.371-.937-.213-1.994-.086-2.967.14-1.073.353-2.172.5-3.259.271-2.066.532-4.143.928-6.189-.074-.069.91-4.338.835-4.412-4.99-5.2-5.751-19.542-5.705-21.528.006-.114.006-.172.006-.172a38.532 38.532 0 0 0-4.532-.9.45.45 0 0 0-.08-.011.7.7 0 0 0-.109-.011 15.718 15.718 0 0 0-2.541-.149c-2.93.109-4.721.252-4.721.252l-.068 3.749.033-3.749s-1.791-.143-4.721-.246a17.1 17.1 0 0 0-2.7.16c-.292.04-.584.08-.864.126-.143.023-.28.046-.418.074-1.808.309-3.279.71-3.279.71v.126c.046 1.74-.7 16.527-5.866 21.574-.029.023 1.173 4.834 1.145 4.862.382 1.981.625 3.992.878 5.993.148 1.17.362 2.359.427 3.536a9.483 9.483 0 0 1-.016 3.2c-.284.971-.928 1.91-.735 2.9a4.955 4.955 0 0 0 .535 1.235 8.418 8.418 0 0 1 .509 5.036c-.024.223-.338 3.606-.408 3.606a12.774 12.774 0 0 0 1.585.8 24.15 24.15 0 0 0 12.961 2.537s11.914-1.5 14.873-2.571a23.157 23.157 0 0 0 2.2-.91q-.308-1.64-.6-3.282a9.932 9.932 0 0 1-.269-2.318c.005-.209.017-.417.023-.623z" transform="translate(-101.206 -108.103)" style="fill:#ff7c45"/>
                <path data-name="Path 35507" d="M214.074 298.927s1.706 16.606 2.479 18.966c2.09 5.09 6.98 17.059 7.238 44.388.288 4-3.921 3.9-4.844 1.7s-10.005-20.026-10.786-25.409c-.547-3.768-1.6-7.689-1.733-10.743a22.277 22.277 0 0 0-1.993-8.541c-2.359-5.058-5.677-12.422-6.44-15.412 3.988-3.33 9.735-6.098 16.079-4.949z" transform="translate(-119.028 -174.534)" style="fill:#e17865"/>
                <g data-name="Group 51443">
                    <path data-name="Path 35508" d="M237.975 401.75c.121.619 2.326 12.766 3.5 16.134s-7.4 2.22-7.4 2.22a54.893 54.893 0 0 0-1.368-11.234c-.22-1.109-1.4-4.927-1.4-4.927s2.548-.3 3.636-.512a6.142 6.142 0 0 0 3.032-1.681z" transform="translate(-133.273 -218.63)" style="fill:#354687"/>
                    <path data-name="Path 35509" d="M245.845 432.526c-3.024-1.9-3.011-2.667-3.365-5.465s-.1-6.485-2.149-6.151c-2.763.452-3.884 1.112-4.423 3.879-.7 3.574-1.684-.006-1.684-.006s-.29-.858-.688-.5-1.783 4.956-2.066 7.845-2.26 4.425.807 6.106 14.216 1.021 15.325-.813-.658-4.205-1.757-4.895z" transform="translate(-132.966 -226.817)" style="fill:#5764a1"/>
                    <path data-name="Path 35510" d="M232.276 448.457c-2.069-1.134-1.841-2.2-1.387-3.666 8.634 4.592 15.586 1.492 16.959.786a2.632 2.632 0 0 1-.246 2.067c-1.11 1.834-12.26 2.495-15.326.813z" transform="translate(-132.967 -237.041)" style="isolation:isolate;fill:#fff"/>
                    <path data-name="Path 35511" d="M248.988 440.119a6.84 6.84 0 0 0-6.413.618" transform="translate(-138.097 -234.818)" style="stroke:#090909;stroke-width:.942px;fill:none;stroke-miterlimit:10"/>
                    <path data-name="Path 35512" d="M248.354 438.462c-.028-.117-.18-.146-.3-.152l-.909-.04a10.6 10.6 0 0 0-2.314.067 3.565 3.565 0 0 0-2.035 1.024" transform="translate(-138.191 -234.238)" style="stroke:#090909;stroke-width:.942px;fill:none;stroke-miterlimit:10"/>
                    <path data-name="Path 35513" d="M247.779 436.68a7.327 7.327 0 0 0-5.531.948" transform="translate(-137.957 -233.493)" style="stroke:#090909;stroke-width:.942px;fill:none;stroke-miterlimit:10"/>
                    <path data-name="Path 35514" d="M246.524 434.764a6.83 6.83 0 0 0-5.264 1.2" transform="translate(-137.534 -232.703)" style="stroke:#090909;stroke-width:.942px;fill:none;stroke-miterlimit:10"/>
                    <path data-name="Path 35515" d="M243.307 434.1a.356.356 0 0 1 .51.219.312.312 0 0 1-.414.312.407.407 0 0 1-.188-.534.585.585 0 0 1 .514-.311c.244-.008.517.156.52.4s-.41.378-.49.148a7.249 7.249 0 0 1 4.3.639c.256.125.537.446.331.643a.414.414 0 0 1-.159.084 3.4 3.4 0 0 1-2.319-.195c-.736-.292-1.415-.715-2.148-1.017a7.133 7.133 0 0 0-2.795-.535 3.865 3.865 0 0 0-2.94 1.151 1.133 1.133 0 0 0-.322.892c.1.541.75.77 1.3.794a4.575 4.575 0 0 0 2.9-.89c.632-.469 1.132-1.1 1.753-1.579" transform="translate(-136.008 -232.333)" style="stroke:#090909;stroke-width:.942px;fill:none;stroke-miterlimit:10"/>
                    <path data-name="Path 35516" d="M248.3 434.673a2.126 2.126 0 0 0 .1.949 7.95 7.95 0 0 0 .8 2.011 4.008 4.008 0 0 0 1.525 1.51" transform="translate(-140.535 -232.713)" style="stroke:#090909;stroke-width:.942px;fill:none;stroke-miterlimit:10"/>
                    <path data-name="Path 35517" d="M245.256 434.884a14 14 0 0 1-1.049 2.875 4.708 4.708 0 0 1-2.134 2.125" transform="translate(-137.882 -232.803)" style="stroke:#090909;stroke-width:.942px;fill:none;stroke-miterlimit:10"/>
                    <path data-name="Path 35518" d="M234.788 437.1a.992.992 0 0 1 .169.834.926.926 0 0 1-.708.457 3.838 3.838 0 0 1-.957.085.523.523 0 0 1-.254-.055.451.451 0 0 1-.182-.365 2.492 2.492 0 0 1 .223-.983c.191-.551.13-1.743.464-2.134.419.699.836 1.438 1.245 2.161z" transform="translate(-133.938 -232.824)" style="isolation:isolate;fill:#fff"/>
                </g>
                <path data-name="Path 35519" d="M143.238 298.927s-1.706 16.606-2.478 18.966c-2.091 5.09-6.981 17.059-7.239 44.388-.287 4 3.922 3.9 4.844 1.7s10.005-20.026 10.786-25.409c.547-3.768 1.6-7.689 1.733-10.743a22.278 22.278 0 0 1 1.993-8.541c2.359-5.058 5.676-12.422 6.439-15.412-3.988-3.33-9.734-6.098-16.078-4.949z" transform="translate(-91.442 -174.534)" style="fill:#e17865"/>
                <g data-name="Group 51444">
                    <path data-name="Path 35520" d="M130.939 401.75c-.121.619-2.326 12.766-3.5 16.134s7.4 2.22 7.4 2.22a54.893 54.893 0 0 1 1.368-11.234c.22-1.109 1.4-4.927 1.4-4.927s-2.548-.3-3.636-.513a6.139 6.139 0 0 1-3.032-1.68z" transform="translate(-88.8 -218.63)" style="fill:#354687"/>
                    <path data-name="Path 35521" d="M117.773 432.526c3.024-1.9 3.011-2.667 3.365-5.465s.1-6.485 2.149-6.151c2.763.452 3.884 1.112 4.424 3.879.7 3.574 1.684-.006 1.684-.006s.29-.858.688-.5 1.784 4.956 2.066 7.845 2.26 4.425-.806 6.106-14.216 1.021-15.326-.813.656-4.205 1.756-4.895z" transform="translate(-83.81 -226.817)" style="fill:#5764a1"/>
                    <path data-name="Path 35522" d="M131.345 448.457c2.069-1.134 1.84-2.2 1.387-3.666-8.635 4.592-15.587 1.492-16.959.786a2.632 2.632 0 0 0 .246 2.067c1.109 1.834 12.259 2.495 15.326.813z" transform="translate(-83.812 -237.041)" style="isolation:isolate;fill:#fff"/>
                    <path data-name="Path 35523" d="M122.821 440.119a6.841 6.841 0 0 1 6.414.618" transform="translate(-86.871 -234.818)" style="stroke:#090909;stroke-width:.942px;fill:none;stroke-miterlimit:10"/>
                    <path data-name="Path 35524" d="M124.094 438.462c.028-.117.18-.146.3-.152l.909-.04a10.593 10.593 0 0 1 2.314.067 3.565 3.565 0 0 1 2.035 1.024" transform="translate(-87.416 -234.238)" style="stroke:#090909;stroke-width:.942px;fill:none;stroke-miterlimit:10"/>
                    <path data-name="Path 35525" d="M124.69 436.68a7.328 7.328 0 0 1 5.531.948" transform="translate(-87.671 -233.493)" style="stroke:#090909;stroke-width:.942px;fill:none;stroke-miterlimit:10"/>
                    <path data-name="Path 35526" d="M126.144 434.764a6.83 6.83 0 0 1 5.264 1.2" transform="translate(-88.293 -232.703)" style="stroke:#090909;stroke-width:.942px;fill:none;stroke-miterlimit:10"/>
                    <path data-name="Path 35527" d="M125.25 434.1a.356.356 0 0 0-.51.219.312.312 0 0 0 .414.312.406.406 0 0 0 .187-.534.585.585 0 0 0-.514-.311c-.244-.008-.517.156-.52.4s.41.378.49.148a7.247 7.247 0 0 0-4.3.639c-.256.125-.537.446-.331.643a.418.418 0 0 0 .159.084 3.4 3.4 0 0 0 2.319-.195c.736-.292 1.415-.715 2.148-1.017a7.136 7.136 0 0 1 2.8-.535 3.864 3.864 0 0 1 2.939 1.151 1.129 1.129 0 0 1 .322.892c-.1.541-.75.77-1.3.794a4.575 4.575 0 0 1-2.9-.89c-.632-.469-1.132-1.1-1.753-1.579" transform="translate(-85.707 -232.333)" style="stroke:#090909;stroke-width:.942px;fill:none;stroke-miterlimit:10"/>
                    <path data-name="Path 35528" d="M126.475 434.673a2.125 2.125 0 0 1-.1.949 7.972 7.972 0 0 1-.805 2.011 4 4 0 0 1-1.524 1.51" transform="translate(-87.395 -232.713)" style="stroke:#090909;stroke-width:.942px;fill:none;stroke-miterlimit:10"/>
                    <path data-name="Path 35529" d="M128.968 434.884a14 14 0 0 0 1.049 2.875 4.711 4.711 0 0 0 2.134 2.125" transform="translate(-89.501 -232.803)" style="stroke:#090909;stroke-width:.942px;fill:none;stroke-miterlimit:10"/>
                    <path data-name="Path 35530" d="M140.212 437.1a.992.992 0 0 0-.169.834.927.927 0 0 0 .708.457 3.841 3.841 0 0 0 .957.085.523.523 0 0 0 .254-.055.451.451 0 0 0 .182-.365 2.483 2.483 0 0 0-.223-.983c-.191-.551-.13-1.743-.464-2.134-.419.699-.836 1.438-1.245 2.161z" transform="translate(-94.22 -232.824)" style="isolation:isolate;fill:#fff"/>
                </g>
                <path data-name="Path 35531" d="M186.272 235.5s-16.1 5.277-31.474.143c-2.073 4.88-6.295 23.605-7.582 43.777 5.579 4.435 7.725 3.434 16.881 4.006 1.717-4.864 5.436-18.455 5.723-19.457a5.546 5.546 0 0 0 2.038.036s4.614 16.846 6.116 19.206c1.86-.072 13.734-2.79 16.238-4.793.215-2.218-3.934-28.898-7.94-42.918z" transform="translate(-97.307 -147.516)" style="fill:#5764a1"/>
                <path data-name="Path 35532" d="M213.6 237.419a54.056 54.056 0 0 1 2.5 9.593c1.861 9.567 4.134 22.041 5.741 31.655" transform="translate(-125.702 -148.337)" style="stroke:#fff;fill:none;stroke-miterlimit:10"/>
                <path data-name="Path 35533" d="M157.194 238.749c-.3 1.07-.526 2.156-.755 3.241l-1.381 6.548-1.452 6.882c-1.779 8.432-3.565 16.92-3.8 25.535" transform="translate(-98.413 -148.906)" style="stroke:#fff;fill:none;stroke-miterlimit:10"/>
                <path data-name="Path 35534" d="M192.84 145.812a6.616 6.616 0 0 1-2.611 2.683 10.312 10.312 0 0 1-9.514 0" transform="translate(-111.636 -109.152)" style="stroke-width:.706px;stroke:#fff;fill:none;stroke-miterlimit:10"/>
                <path data-name="Path 35535" d="M177.444 148.293a4.28 4.28 0 0 1-1.673-1.625" transform="translate(-109.521 -109.519)" style="stroke-width:.706px;stroke:#fff;fill:none;stroke-miterlimit:10"/>
                <g data-name="Group 51445">
                    <path data-name="Path 35536" d="M190.187 134.731a7.434 7.434 0 0 1-5.082 4.1c-6.964 1.03-9.517-2.684-10.552-4.286a4.86 4.86 0 0 1 .532-.172c1.247-.395 1.825-2.512 1.969-4.006a33.486 33.486 0 0 0 .109-3.439 26.856 26.856 0 0 0-.378-4.521l9.591 3.4c.069.458.12.95.172 1.454.017.229.04.464.057.7.029.452.057.9.08 1.333.017.418.029.813.04 1.185a7.452 7.452 0 0 0 .315 2.037 2.853 2.853 0 0 0 .99 1.465 4.039 4.039 0 0 0 1.505.641c.022.006.646.126.652.109z" transform="translate(-109 -99.142)" style="fill:#e17865"/>
                </g>
                <rect data-name="Rectangle 19475" width="145.686" height="3.481" rx="1.741" transform="translate(0 104.579)" style="fill:#d7d7d7"/>
                <g data-name="Group 51446">
                    <path data-name="Path 35537" d="M114.328 270.544c-.027.027-.071.01-.09.034l-.235.288a1.133 1.133 0 0 1-.654.452 1.287 1.287 0 0 1-.308.009 2.356 2.356 0 0 1-.461-.067 1.546 1.546 0 0 1-1.038-.9 4.652 4.652 0 0 1-.074-.852c-.033-.438-.06-.877-.076-1.316a8.22 8.22 0 0 1 .142-2.515c.305-1.059 1.493.107 1.781.536a6.14 6.14 0 0 1 .877 2.351 10.212 10.212 0 0 1 .148 1.712c.001.063.027.208-.012.268z" transform="translate(-81.97 -160.241)" style="fill:#e17865"/>
                    <path data-name="Path 35538" d="M120.61 265.925s1.1-.237 1.274.033a4.837 4.837 0 0 1 .848 2.406 3.648 3.648 0 0 1-.418 1.841c-.115.213-.3.439-.541.419-.092-.007-.192-.05-.271 0a.327.327 0 0 0-.092.11 1.506 1.506 0 0 1-1.068.569 3 3 0 0 1-1.323-.066 2.442 2.442 0 0 0-.327-.126c-.156-.02-.053-.039-.156.067-.126.129-.186.254-.365.331a1.311 1.311 0 0 1-.609.081 2.443 2.443 0 0 1-.835-.211c-.18-.081-.508-.406-.68-.4-.039-.2-.092-.4-.138-.6a2.294 2.294 0 0 1-.13-.559l.121-1.973.243-1.2c.118-.2.27-.419.4-.612a1.032 1.032 0 0 1 .537-.43.553.553 0 0 1 .62.207c.1.158.085.366.192.515a2.264 2.264 0 0 1 .983-.852.736.736 0 0 1 .319-.08.6.6 0 0 1 .468.31 1.75 1.75 0 0 1 .184.553c.042.2.026.349.075.544" transform="translate(-83.858 -160.302)" style="fill:#e17865"/>
                    <path data-name="Path 35539" d="M116.049 271a8.863 8.863 0 0 1 .106-4.387 1.588 1.588 0 0 1 .519-.781 1.164 1.164 0 0 1 .625-.431.284.284 0 0 1 .159.014.378.378 0 0 1 .124.109c.068.081.136.162.2.249a1.669 1.669 0 0 1 .22 1.4" transform="translate(-83.872 -160.305)" style="stroke:#934735;stroke-width:.5px;fill:none;stroke-miterlimit:10"/>
                    <path data-name="Path 35540" d="M119.586 268.353a6.3 6.3 0 0 0 .6 3.621" transform="translate(-85.46 -161.569)" style="stroke:#934735;stroke-width:.5px;fill:none;stroke-miterlimit:10"/>
                    <path data-name="Path 35541" d="M123.349 270.32c-.065.125-.542-.011-.661-.087a1.617 1.617 0 0 1-.411-.474 7.5 7.5 0 0 1-.595-3.333 2.568 2.568 0 0 0-.344-1.1.473.473 0 0 0-.121-.167.436.436 0 0 0-.224-.072 1.174 1.174 0 0 0-.69.128.839.839 0 0 0-.419.55c-.013.062-.017.126-.034.187a.56.56 0 0 0-.052.215" transform="translate(-85.577 -160.17)" style="stroke:#934735;stroke-width:.5px;fill:none;stroke-miterlimit:10"/>
                    <path data-name="Path 35542" d="M125.688 267.5c-.583-1.547-1.38-1.3-1.791-1.232a.6.6 0 0 0-.415.4 1.569 1.569 0 0 0-.085.6" transform="translate(-87.117 -160.651)" style="stroke:#934735;stroke-width:.5px;fill:none;stroke-miterlimit:10"/>
                    <path data-name="Path 35543" d="M114.1 267.834a5.2 5.2 0 0 0-.53-1.344 2.329 2.329 0 0 0-1.051-.963.645.645 0 0 0-.667.024.775.775 0 0 0-.18.581l-.034 1.256" transform="translate(-82.086 -160.326)" style="stroke:#934735;stroke-width:.5px;fill:none;stroke-miterlimit:10"/>
                </g>
                <g data-name="Group 51447" transform="translate(121.27 86.481)">
                    <rect data-name="Rectangle 19476" width="4.793" height="39.485" rx="2.396" transform="rotate(180 2.396 19.742)"/>
                    <rect data-name="Rectangle 19477" width="4.793" height="31.617" rx="2.396" transform="rotate(180 4.894 17.776)"/>
                    <rect data-name="Rectangle 19478" width="4.793" height="20.315" rx="2.396" transform="rotate(180 7.391 14.95)"/>
                    <path data-name="Path 35544" d="M272.966 269.964v-34.692a2.394 2.394 0 0 1 1.872-2.335 2.367 2.367 0 0 0-.525-.062 2.4 2.4 0 0 0-2.4 2.4v34.693a2.4 2.4 0 0 0 2.4 2.4 2.368 2.368 0 0 0 .525-.062 2.394 2.394 0 0 1-1.872-2.342z" transform="translate(-271.917 -232.875)" style="fill:#a6a09f;opacity:.45"/>
                    <path data-name="Path 35545" d="M281.695 268.971v-26.824a2.4 2.4 0 0 1 1.872-2.335 2.369 2.369 0 0 0-.525-.062 2.4 2.4 0 0 0-2.4 2.4v26.824a2.4 2.4 0 0 0 2.4 2.4 2.369 2.369 0 0 0 .525-.062 2.4 2.4 0 0 1-1.872-2.341z" transform="translate(-275.651 -235.816)" style="fill:#a6a09f;opacity:.45"/>
                    <path data-name="Path 35546" d="M290.424 267.544v-15.522a2.4 2.4 0 0 1 1.872-2.335 2.366 2.366 0 0 0-.524-.062 2.4 2.4 0 0 0-2.4 2.4v15.522a2.4 2.4 0 0 0 2.4 2.4 2.368 2.368 0 0 0 .524-.062 2.4 2.4 0 0 1-1.872-2.341z" transform="translate(-279.384 -240.04)" style="fill:#a6a09f;opacity:.45"/>
                </g>
                <g data-name="Group 51448" transform="translate(9.538 86.481)">
                    <rect data-name="Rectangle 19479" width="4.793" height="39.485" rx="2.396" transform="translate(9.991)"/>
                    <rect data-name="Rectangle 19480" width="4.793" height="31.617" rx="2.396" transform="translate(4.995 3.934)"/>
                    <rect data-name="Rectangle 19481" width="4.793" height="20.315" rx="2.396" transform="translate(0 9.585)"/>
                    <path data-name="Path 35547" d="M99.268 269.964v-34.692a2.4 2.4 0 0 0-1.872-2.335 2.368 2.368 0 0 1 .525-.062 2.4 2.4 0 0 1 2.4 2.4v34.693a2.4 2.4 0 0 1-2.4 2.4 2.368 2.368 0 0 1-.524-.062 2.4 2.4 0 0 0 1.871-2.342z" transform="translate(-85.534 -232.875)" style="fill:#a6a09f;opacity:.45"/>
                    <path data-name="Path 35548" d="M90.538 268.971v-26.824a2.4 2.4 0 0 0-1.872-2.335 2.36 2.36 0 0 1 .524-.062 2.4 2.4 0 0 1 2.4 2.4v26.824a2.4 2.4 0 0 1-2.4 2.4 2.36 2.36 0 0 1-.524-.062 2.394 2.394 0 0 0 1.872-2.341z" transform="translate(-81.8 -235.816)" style="fill:#a6a09f;opacity:.45"/>
                    <path data-name="Path 35549" d="M81.809 267.543v-15.522a2.394 2.394 0 0 0-1.872-2.334 2.367 2.367 0 0 1 .525-.062 2.4 2.4 0 0 1 2.4 2.4v15.522a2.4 2.4 0 0 1-2.4 2.4 2.369 2.369 0 0 1-.525-.062 2.394 2.394 0 0 0 1.872-2.342z" transform="translate(-78.066 -240.04)" style="fill:#a6a09f;opacity:.45"/>
                </g>
                <g data-name="Group 51449">
                    <path data-name="Path 35550" d="M258.26 270.544c.027.027.071.01.091.034.072.09.157.193.235.288a1.132 1.132 0 0 0 .654.452 1.287 1.287 0 0 0 .308.009 2.368 2.368 0 0 0 .461-.067 1.546 1.546 0 0 0 1.038-.9 4.707 4.707 0 0 0 .074-.852c.033-.438.06-.877.075-1.316a8.2 8.2 0 0 0-.142-2.515c-.305-1.059-1.492.107-1.78.536a6.121 6.121 0 0 0-.877 2.351 10.092 10.092 0 0 0-.148 1.712c-.002.063-.029.208.011.268z" transform="translate(-144.797 -160.241)" style="fill:#e17865"/>
                    <path data-name="Path 35551" d="M249.01 265.925s-1.1-.237-1.274.033a4.842 4.842 0 0 0-.848 2.406 3.649 3.649 0 0 0 .418 1.841c.115.213.3.439.541.419.092-.007.192-.05.271 0a.327.327 0 0 1 .092.11 1.507 1.507 0 0 0 1.069.569 3 3 0 0 0 1.323-.066 2.449 2.449 0 0 1 .327-.126c.156-.02.052-.039.156.067.126.129.185.254.365.331a1.309 1.309 0 0 0 .609.081 2.442 2.442 0 0 0 .835-.211c.179-.081.507-.406.679-.4.039-.2.092-.4.139-.6a2.291 2.291 0 0 0 .13-.559l-.122-1.973-.243-1.2c-.118-.2-.27-.419-.4-.612a1.029 1.029 0 0 0-.537-.43.554.554 0 0 0-.62.207c-.094.158-.084.366-.192.515a2.261 2.261 0 0 0-.983-.852.736.736 0 0 0-.319-.08.6.6 0 0 0-.468.31 1.765 1.765 0 0 0-.184.553c-.042.2-.025.349-.075.544" transform="translate(-139.941 -160.302)" style="fill:#e17865"/>
                    <path data-name="Path 35552" d="M257.084 271a8.857 8.857 0 0 0-.106-4.387 1.584 1.584 0 0 0-.519-.781 1.163 1.163 0 0 0-.624-.431.285.285 0 0 0-.16.014.375.375 0 0 0-.124.109c-.068.081-.136.162-.2.249a1.671 1.671 0 0 0-.22 1.4" transform="translate(-143.441 -160.305)" style="stroke:#934735;stroke-width:.5px;fill:none;stroke-miterlimit:10"/>
                    <path data-name="Path 35553" d="M254.735 268.353a6.29 6.29 0 0 1-.6 3.621" transform="translate(-143.04 -161.569)" style="stroke:#934735;stroke-width:.5px;fill:none;stroke-miterlimit:10"/>
                    <path data-name="Path 35554" d="M248.815 270.32c.065.125.543-.011.662-.087a1.618 1.618 0 0 0 .411-.474 7.51 7.51 0 0 0 .595-3.333 2.559 2.559 0 0 1 .344-1.1.474.474 0 0 1 .122-.167.436.436 0 0 1 .224-.072 1.176 1.176 0 0 1 .691.128.841.841 0 0 1 .419.55c.012.062.017.126.034.187a.581.581 0 0 1 .052.215" transform="translate(-140.766 -160.17)" style="stroke:#934735;stroke-width:.5px;fill:none;stroke-miterlimit:10"/>
                    <path data-name="Path 35555" d="M247.418 267.5c.583-1.547 1.381-1.3 1.791-1.232a.6.6 0 0 1 .415.4 1.546 1.546 0 0 1 .085.6" transform="translate(-140.168 -160.651)" style="stroke:#934735;stroke-width:.5px;fill:none;stroke-miterlimit:10"/>
                    <path data-name="Path 35556" d="M258.885 267.834a5.174 5.174 0 0 1 .529-1.344 2.332 2.332 0 0 1 1.051-.963.645.645 0 0 1 .667.024.775.775 0 0 1 .18.581l.034 1.256" transform="translate(-145.073 -160.326)" style="stroke:#934735;stroke-width:.5px;fill:none;stroke-miterlimit:10"/>
                </g>
                <path data-name="Path 35557" d="M172.234 105.3s-2.193-2.193-3.052.191a3.494 3.494 0 0 0 2.671 4.578s2.48 7.248 7.344 7.63c2.575.1 5.532 0 8.393-7.058 1.447-.452 4.437-3.048 2.548-5.349a1.343 1.343 0 0 0-1.152-.51 1.306 1.306 0 0 0-1.015.708 22.834 22.834 0 0 1 .3-4.418 3.843 3.843 0 0 0-3.915-4.43l-9.963.346a2.673 2.673 0 0 0-2.573 2.873z" transform="translate(-106.614 -88.119)" style="fill:#e17865"/>
                <path data-name="Path 35558" d="m175.04 97.927-.223.87c0 .006 0 .006-.006.011-.258.744-.664 1.471-.973 2.192a8.876 8.876 0 0 0-.664 4.057 2.387 2.387 0 0 1-.183.315 6.091 6.091 0 0 1-.681-.549c-.28-.229-.681-.212-.927-.361l3.674-7.382a1.114 1.114 0 0 1 .011.137 2.674 2.674 0 0 1-.028.71z" transform="translate(-107.644 -88.307)" style="fill:#242723"/>
                <path data-name="Path 35559" d="M189.531 91.931a4.623 4.623 0 0 1 .944 2.868 7.262 7.262 0 0 1-.538 3.637.076.076 0 0 1-.089.048c-.367-.009-.653-.073-.96.176a1.189 1.189 0 0 0-.454.842c-.024-.839.022-2.283 0-3.123a8.862 8.862 0 0 0-.358-2.182 3.64 3.64 0 0 0-1.506-1.862c-.176-.117-.3-.1-.421-.259a17.64 17.64 0 0 1 .192 1.811c.021.381-.171 1.437.009 1.739a8.111 8.111 0 0 0-3.444-3.2 9.458 9.458 0 0 1 1.139 2.358q-2.052-1.193-4.034-2.518a23.306 23.306 0 0 1 .807 3.056c-.956-.526-1.906-1.059-2.861-1.591a6.86 6.86 0 0 1-3.4-3.17.557.557 0 0 1-.006.1c0 .24-.011.475-.029.71a4.259 4.259 0 0 1-.229.881c-.258.744-.664 1.471-.973 2.192a9.057 9.057 0 0 0-.419 4.129c.006.137-.227.209-.21.346a1.509 1.509 0 0 1-.217-.1 6.087 6.087 0 0 1-.681-.549c-.28-.229-.681-.212-.927-.361a.4.4 0 0 1-.109-.086 3.406 3.406 0 0 1-.361-1.236 14.129 14.129 0 0 1-.223-3.153 19.829 19.829 0 0 1 .355-4.246 6.505 6.505 0 0 1 1.951-3.548 1.438 1.438 0 0 1 1.534-.383 2.883 2.883 0 0 1 1.98-1.8c3.09-1.047 6.9-.338 9.9-1.705a6.4 6.4 0 0 1-1.478 2.295 3.6 3.6 0 0 1 2.97.675 9.175 9.175 0 0 1 2.335 2.432c.956 1.957.79 3.668.858 5.911-.206-.442-.715-.751-1.047-1.134z" transform="translate(-107.125 -81.75)" style="fill:#242723"/>
                <g data-name="Group 51450">
                    <path data-name="Path 35560" d="M194.208 112.678c-.039.565.189.939.5.96s.591-.317.629-.881-.193-.886-.506-.908-.584.264-.623.829z" transform="translate(-117.405 -94.624)" style="fill:#242723"/>
                    <path data-name="Path 35561" d="M178.336 108.391a2.293 2.293 0 0 1 3.442-.51" transform="translate(-110.618 -92.686)" style="stroke:#5d1d19;fill:none;stroke-miterlimit:10"/>
                    <path data-name="Path 35562" d="M195.841 108.391a2.293 2.293 0 0 0-3.442-.51" transform="translate(-116.633 -92.686)" style="stroke:#5d1d19;fill:none;stroke-miterlimit:10"/>
                    <path data-name="Path 35563" d="M181.576 112.745c.031.579.31.929.63.912s.56-.4.529-.974-.307-.876-.627-.859-.563.343-.532.921z" transform="translate(-112.003 -94.614)" style="fill:#242723"/>
                    <path data-name="Path 35564" d="M187.009 125.982c-.882-.013-2.15-1.175-1.747-2.094a.468.468 0 0 1 .174-.222.594.594 0 0 1 .338-.048c.444.025.89.059 1.334.066 1.2.018 1.935-.1 1.927.419a2.313 2.313 0 0 1-2.026 1.879z" transform="translate(-113.548 -99.658)" style="fill:#f8f5ec"/>
                    <path data-name="Path 35565" d="M180.3 118.734c-.03.5-.874.865-1.884.8s-1.8-.518-1.775-1.023.874-.865 1.884-.8 1.807.518 1.775 1.023z" transform="translate(-109.894 -97.13)" style="fill:#d86859"/>
                    <path data-name="Path 35566" d="M197.427 119.359c-.03.5-.874.865-1.884.8s-1.8-.518-1.775-1.023.874-.865 1.884-.8 1.805.518 1.775 1.023z" transform="translate(-117.219 -97.397)" style="fill:#d86859"/>
                    <path data-name="Path 35567" d="M188.833 113.578a4.214 4.214 0 0 0 1.187 3.029s-1.269.556-1.253.936" transform="translate(-115.08 -95.365)" style="stroke:#bc3c3c;fill:none;stroke-miterlimit:10"/>
                </g>
                <path data-name="Path 35568" d="M182.295 131.663a3.517 3.517 0 0 0 1.614.9 6.2 6.2 0 0 0 .984.2 6.655 6.655 0 0 0 4.371-1.025" transform="translate(-112.312 -103.1)" style="stroke:#d86859;fill:none;stroke-miterlimit:10"/>
                <path data-name="Path 35569" d="M132.621 213.019a5.672 5.672 0 0 0 .953 1.539" transform="translate(-91.064 -137.9)" style="stroke:#d86859;fill:none;stroke-miterlimit:10"/>
                <path data-name="Path 35570" d="M140.578 175.016a8.133 8.133 0 0 0 .834 2.365" transform="translate(-94.467 -121.644)" style="stroke:#d86859;fill:none;stroke-miterlimit:10"/>
                <path data-name="Path 35571" d="M232.028 174.46a5.239 5.239 0 0 1-2.415 2.768" transform="translate(-132.552 -121.407)" style="stroke:#d86859;fill:none;stroke-miterlimit:10"/>
                <path data-name="Path 35572" d="M231.3 220.706a8.388 8.388 0 0 0 1.277.9" transform="translate(-133.273 -141.188)" style="stroke:#d86859;fill:none;stroke-miterlimit:10"/>
                <path data-name="Path 35573" d="M126 260.272a1.108 1.108 0 0 1-1.13-.621" transform="translate(-87.747 -157.847)" style="stroke:#d86859;fill:none;stroke-miterlimit:10"/>
                <path data-name="Path 35574" d="M248.194 260.15a.182.182 0 0 0-.142.271 3.646 3.646 0 0 1 1.2-.771" transform="translate(-140.428 -157.846)" style="stroke:#d86859;fill:none;stroke-miterlimit:10"/>
                <path data-name="Path 35575" d="M173.373 219.758a5.727 5.727 0 0 1 2.595.559c.735.458 1.036 1.532.326 2.019a2.185 2.185 0 0 1-.983.287 13.155 13.155 0 0 1-7.173-1.206 11.485 11.485 0 0 1-3.129-2.237c-.492-.5-3.749-3.439-.28-1.825a28.789 28.789 0 0 0 4.114 1.6 23.229 23.229 0 0 0 4.53.803z" transform="translate(-104.122 -139.55)" style="fill:#ec6931"/>
                <path data-name="Path 35576" d="M204.565 211.66a6.362 6.362 0 0 1-1.41.62 5.4 5.4 0 0 1-1.221.141c-.322.009-.718.054-.838.354a.524.524 0 0 0 .221.6 1.033 1.033 0 0 0 .662.135 3.66 3.66 0 0 0 1.088-.3 15.8 15.8 0 0 0 4.234-2.56 2.635 2.635 0 0 0 .8-.894c-.508.018-1.248.648-1.7.9q-.918.505-1.836 1.004z" transform="translate(-120.341 -136.502)" style="fill:#ec6931"/>
                <path data-name="Path 35577" d="M181.945 280.988a4.531 4.531 0 0 0 2.442 1.791 13.49 13.49 0 0 0 3.036.533" transform="translate(-112.162 -166.974)" style="stroke:#fff;fill:none;stroke-miterlimit:10"/>
            </g>
        </g>
        <g data-name="Speech Bubble">
            <g data-name="Speech Bubble">
                <path data-name="Path 34711" d="M145.565 54.4a13.41 13.41 0 0 0-5.717 8.043l-.28 1.51a13.423 13.423 0 0 0 26.174 5.566l.355-1.5A13.423 13.423 0 0 0 145.565 54.4z" transform="translate(-31.747 -15.913)" style="fill:#fff"/>
                <path data-name="Path 34712" d="M142.6 52.488a14.591 14.591 0 0 0-5.431 18.01l-2.651 3.672a.847.847 0 0 0 .86 1.324l4.432-.928a14.572 14.572 0 1 0 2.79-22.078zm19.205 4.9a13.377 13.377 0 0 1 1.948 9.671l-.355 1.5a13.423 13.423 0 0 1-26.174-5.566l.28-1.51a13.426 13.426 0 0 1 24.3-4.092z" transform="translate(-29.407 -14.949)" style="fill:#455a64"/>
                <path data-name="Path 34713" d="M164.148 58.355a13.377 13.377 0 0 1 1.948 9.671l-.355 1.5a13.423 13.423 0 0 1-26.174-5.566l.28-1.51a13.426 13.426 0 0 1 24.3-4.092z" transform="translate(-31.747 -15.913)" style="opacity:.7;fill:#fff"/>
            </g>
            <path data-name="Path 34714" d="M155.45 78.142a1.934 1.934 0 0 1-1.412-.612l-4.385-4.682a1.935 1.935 0 0 1 2.824-2.645l2.848 3.041 6.737-8.534a1.934 1.934 0 0 1 3.037 2.4l-8.131 10.3a1.933 1.933 0 0 1-1.437.734z" transform="translate(-36.188 -21.3)" style="fill:#ff7c45"/>
        </g>
    </g>
</svg>
